<svg width="168" height="38" viewBox="0 0 168 38" fill="none" xmlns="http://www.w3.org/2000/svg">
<path d="M95.1995 37C96.1078 37 96.8864 36.8688 97.5352 36.5626C98.184 36.3002 98.6597 35.9066 98.9625 35.4255C99.2653 34.9444 99.4383 34.4196 99.4383 33.8511C99.4383 33.1513 99.2653 32.5827 98.9193 32.1891C98.5732 31.7955 98.1407 31.4894 97.6217 31.2707C97.1026 31.052 96.4538 30.8771 95.632 30.6584C94.94 30.4834 94.3777 30.3085 93.9452 30.1773C93.5126 30.0461 93.1666 29.8274 92.9071 29.5213C92.6476 29.2589 92.4745 28.8652 92.4745 28.4279C92.4745 27.8156 92.7341 27.3345 93.2099 26.9409C93.7289 26.5473 94.4642 26.3723 95.459 26.3723C95.978 26.3723 96.4971 26.4598 97.0594 26.591C97.5784 26.766 98.0974 26.9846 98.5732 27.2908L98.9625 26.3286C98.53 26.0225 97.9677 25.76 97.3621 25.5851C96.7566 25.4102 96.1078 25.3227 95.459 25.3227C94.5507 25.3227 93.7721 25.4539 93.1233 25.76C92.5178 26.0225 92.042 26.4161 91.7392 26.8972C91.4365 27.3782 91.3067 27.9031 91.3067 28.4716C91.3067 29.1714 91.4797 29.74 91.8258 30.1336C92.1718 30.5272 92.6043 30.8333 93.1233 31.052C93.6424 31.2707 94.2912 31.4456 95.1562 31.6643C95.8483 31.8392 96.4106 32.0142 96.7999 32.1454C97.1891 32.2766 97.5352 32.4953 97.7947 32.7577C98.0542 33.0201 98.2272 33.4137 98.2272 33.8511C98.2272 34.4634 97.9677 34.9444 97.4486 35.2943C96.9296 35.6879 96.1943 35.8629 95.1562 35.8629C94.4209 35.8629 93.7289 35.7317 93.0801 35.4693C92.388 35.2069 91.869 34.9007 91.4365 34.4634L90.9607 35.3818C91.3932 35.8191 91.9555 36.169 92.7341 36.4752C93.5559 36.8688 94.3344 37 95.1995 37Z" fill="white"/>
<path d="M111.722 37C112.543 37 113.322 36.8688 114.057 36.5626C114.793 36.2565 115.398 35.8629 115.874 35.2943L115.095 34.5071C114.23 35.4255 113.106 35.8629 111.765 35.8629C110.857 35.8629 110.078 35.6442 109.343 35.2506C108.607 34.857 108.045 34.2884 107.613 33.5449C107.18 32.8451 107.007 32.0142 107.007 31.1395C107.007 30.2648 107.223 29.4338 107.613 28.734C108.045 28.0343 108.607 27.4657 109.343 27.0284C110.078 26.6347 110.9 26.4161 111.765 26.4161C113.106 26.4161 114.23 26.8534 115.095 27.7719L115.874 26.9846C115.398 26.4598 114.793 26.0225 114.057 25.76C113.365 25.4976 112.587 25.3227 111.722 25.3227C110.597 25.3227 109.602 25.5851 108.694 26.0662C107.786 26.5473 107.094 27.247 106.575 28.1655C106.056 29.0402 105.796 30.0461 105.796 31.1395C105.796 32.2329 106.056 33.2388 106.575 34.1135C107.094 34.9882 107.786 35.6879 108.694 36.2128C109.602 36.7376 110.597 37 111.722 37Z" fill="white"/>
<path d="M128.288 35.9066C127.38 35.9066 126.601 35.6879 125.866 35.2943C125.131 34.9007 124.569 34.3321 124.136 33.5886C123.703 32.8451 123.53 32.0579 123.53 31.1832C123.53 30.3085 123.747 29.4775 124.136 28.7778C124.525 28.078 125.131 27.5095 125.866 27.0721C126.601 26.6347 127.38 26.4598 128.288 26.4598C129.197 26.4598 129.975 26.6785 130.71 27.0721C131.446 27.4657 132.008 28.0343 132.397 28.7778C132.787 29.5213 133.003 30.3085 133.003 31.1832C133.003 32.0579 132.787 32.8889 132.397 33.5886C132.008 34.3321 131.403 34.857 130.71 35.2943C129.975 35.6879 129.197 35.9066 128.288 35.9066ZM128.288 37C129.413 37 130.408 36.7376 131.316 36.2565C132.224 35.7754 132.916 35.0756 133.435 34.1572C133.954 33.2825 134.214 32.2766 134.214 31.1832C134.214 30.0898 133.954 29.0839 133.435 28.2092C132.916 27.3345 132.224 26.6347 131.316 26.1099C130.408 25.6288 129.413 25.3664 128.288 25.3664C127.164 25.3664 126.169 25.6288 125.261 26.1099C124.352 26.6347 123.66 27.2908 123.141 28.2092C122.622 29.0839 122.363 30.0898 122.363 31.1832C122.363 32.2766 122.622 33.2825 123.141 34.1572C123.66 35.0319 124.352 35.7317 125.261 36.2565C126.169 36.7376 127.164 37 128.288 37Z" fill="white"/>
<path d="M159.733 35.8629V31.6206H165.572V30.6146H159.733V26.5473H166.264V25.4976H158.522V36.9125H166.523V35.8629H159.733ZM145.935 32.2329H142.95V26.5035H145.935C147.059 26.5035 147.925 26.7659 148.487 27.247C149.092 27.7281 149.395 28.4716 149.395 29.3901C149.395 30.3085 149.092 31.0083 148.487 31.4894C147.881 31.9704 147.016 32.2329 145.935 32.2329ZM150.736 36.8688L147.968 32.9326C148.79 32.6702 149.438 32.2329 149.871 31.6206C150.303 31.0083 150.52 30.2648 150.52 29.3463C150.52 28.1217 150.13 27.1596 149.309 26.4598C148.487 25.76 147.362 25.4102 145.935 25.4102H141.696V36.8251H142.907V33.195H145.935C146.238 33.195 146.54 33.195 146.843 33.1513L149.438 36.8251H150.736V36.8688Z" fill="white"/>
<path d="M115.182 20.2057L115.139 0H110.467L103.633 11.6336L96.6264 0H91.9551V20.2057H97.1887V9.79669L102.293 18.1939H104.801L109.948 9.49054L109.992 20.2057H115.182Z" fill="white"/>
<path d="M125.78 12.0709L128.332 5.59811L130.884 12.0709H125.78ZM134.128 20.2057H140.01L131.186 0H125.607L116.783 20.2057H122.536L124.093 16.2695H132.527L134.128 20.2057Z" fill="white"/>
<path d="M151.861 20.2057H167.043V15.6572H157.527V0H151.861V20.2057ZM141.61 20.2057H147.276V0H141.61V20.2057Z" fill="white"/>
<path fill-rule="evenodd" clip-rule="evenodd" d="M66.003 5.94616C66.3848 6.62176 67.3572 6.62393 67.742 5.95003L70.2105 1.62706C70.5911 0.960408 70.1098 0.131195 69.3421 0.131195H64.4306C63.6649 0.131195 63.1832 0.956571 63.56 1.6232L66.003 5.94616ZM24.8034 6.98238C24.979 7.28992 24.9788 7.66742 24.8029 7.97482L8.63585 36.2342C8.45773 36.5455 8.12653 36.7376 7.76785 36.7376H1.72209C0.954509 36.7376 0.473113 35.9086 0.853572 35.2419L20.0229 1.65262C20.4067 0.98026 21.376 0.980144 21.7599 1.65241L24.8034 6.98238ZM41.5023 7.97194C41.6768 7.66606 41.6776 7.29093 41.5043 6.98433L38.4978 1.66418C38.1159 0.98848 37.1434 0.986431 36.7587 1.66051L17.5938 35.2419C17.2133 35.9086 17.6947 36.7376 18.4623 36.7376H24.5073C24.8664 36.7376 25.1979 36.5451 25.3759 36.2332L41.5023 7.97194ZM55.1977 30.9511C54.8123 30.2802 53.8437 30.2824 53.4613 30.955L51.0233 35.2433C50.6443 35.91 51.1258 36.7376 51.8926 36.7376H56.794C57.5628 36.7376 58.0441 35.9061 57.6611 35.2395L55.1977 30.9511ZM46.8451 16.3029C46.4614 15.6308 45.4924 15.6307 45.1085 16.3027L34.2883 35.2415C33.9075 35.9082 34.3888 36.7376 35.1566 36.7376H41.2026C41.5607 36.7376 41.8914 36.5461 42.0697 36.2357L49.8872 22.6266C50.064 22.319 50.0644 21.9408 49.8885 21.6327L46.8451 16.3029ZM53.4602 1.66344C53.842 0.987906 54.8142 0.98566 55.1991 1.65943L70.7809 28.9364C70.9569 29.2445 70.9565 29.6228 70.7797 29.9305L67.7395 35.223C67.3545 35.8933 66.387 35.8919 66.0038 35.2205L50.4553 7.97194C50.2807 7.66606 50.28 7.29093 50.4532 6.98433L53.4602 1.66344Z" fill="url(#paint0_linear_2_322)"/>
<defs>
<linearGradient id="paint0_linear_2_322" x1="70.9126" y1="0.131195" x2="-4.4326" y2="17.4187" gradientUnits="userSpaceOnUse">
<stop stop-color="#D045AE"/>
<stop offset="1" stop-color="#473CC2"/>
</linearGradient>
</defs>
</svg>
