<svg width="64" height="64" viewBox="0 0 64 64" xmlns="http://www.w3.org/2000/svg"><path fill-rule="evenodd" clip-rule="evenodd" d="M17.99 25.2809C18.037 22.7409 18.3244 20.1942 19.0463 17.5686C20.0026 14.8697 22.7881 8.65933 26.2803 5.40909C16.3111 12.2998 12.7109 24.2249 14.9731 34.3838C17.817 46.9317 29.8537 52.0092 42.485 47.8505C42.6252 47.7768 42.8084 47.574 42.9685 47.3968C43.1027 47.2482 43.2207 47.1177 43.2834 47.0962L43.2988 47.0931C43.2942 47.0932 43.289 47.0942 43.2834 47.0962C34.0611 48.9493 25.3596 45.9832 21.0372 38.2909C18.9303 34.608 17.9516 30.0922 17.99 25.2809ZM44.0203 50.3101L44.0203 50.3101L44.0202 50.3102C43.2718 50.6049 42.6373 50.8548 42.3733 50.9937C41.273 51.5273 40.1989 52.0981 39.1629 52.6487L39.1618 52.6493C38.8225 52.8296 38.4872 53.0078 38.1564 53.1818C36.258 54.1804 34.382 55.2714 32.5114 56.3592L32.5113 56.3592C31.2112 57.1154 29.9136 57.8699 28.613 58.5909C28.74 58.5241 29.0246 58.2132 29.3412 57.8675C29.6931 57.4832 30.0845 57.0557 30.3425 56.8727C36.557 52.8253 43.1596 49.5021 49.6511 46.7164C49.7251 46.6475 49.6233 46.8507 49.6233 46.8507C49.5123 46.954 49.4129 47.0737 49.3135 47.1934C49.2141 47.3131 49.1146 47.4327 49.0036 47.536C48.7755 47.8248 48.3683 48.1186 48.096 48.3151C47.9818 48.3975 47.8913 48.4628 47.8476 48.5034C47.5618 48.9153 45.5524 49.7067 44.0203 50.3101ZM36.411 37.6242C36.1555 37.9008 35.9745 38.0967 35.9605 38.0767C40.0926 40.6344 43.2907 43.9529 46.6275 47.4679C46.6737 47.5334 47.7095 46.5694 47.6633 46.5038C45.427 42.2902 41.8961 38.8473 38.2263 36.0764C37.9629 35.9444 36.9934 36.9938 36.411 37.6242Z"/></svg>