<svg width="32" height="32" viewBox="0 0 32 32" fill="none" xmlns="http://www.w3.org/2000/svg">
<path fill-rule="evenodd" clip-rule="evenodd" d="M5.09079 16C5.09079 10.1428 9.70669 5.36379 15.4992 5.10208V8.4346C11.5451 8.69203 8.41766 11.9808 8.41766 16C8.41766 20.1871 11.812 23.5815 15.9992 23.5815C20.1864 23.5815 23.5808 20.1871 23.5808 16C23.5808 13.9731 22.7848 12.1311 21.4893 10.7712L20.7653 11.461C21.8907 12.6423 22.5808 14.24 22.5808 16C22.5808 19.6349 19.6341 22.5815 15.9992 22.5815C12.3643 22.5815 9.41766 19.6349 9.41766 16C9.41766 12.5333 12.0979 9.69258 15.4992 9.43708V12.8923C13.999 13.1321 12.8526 14.4322 12.8526 16C12.8526 17.7383 14.2618 19.1474 16 19.1474C17.7383 19.1474 19.1474 17.7383 19.1474 16C19.1474 14.4317 18.0002 13.1312 16.4992 12.892V4.1H16V4.09079C15.8417 4.09079 15.6841 4.09388 15.5273 4.1H15.4992V4.10113C9.15421 4.36359 4.09079 9.59048 4.09079 16C4.09079 22.5773 9.42273 27.9092 16 27.9092C22.5773 27.9092 27.9092 22.5773 27.9092 16C27.9092 12.816 26.6591 9.923 24.6239 7.7867L23.8999 8.47646C25.765 10.4343 26.9092 13.083 26.9092 16C26.9092 22.025 22.025 26.9092 16 26.9092C9.97501 26.9092 5.09079 22.025 5.09079 16ZM15.1474 16C15.1474 15.5291 15.5291 15.1474 16 15.1474C16.4709 15.1474 16.8526 15.5291 16.8526 16C16.8526 16.4709 16.4709 16.8526 16 16.8526C15.5291 16.8526 15.1474 16.4709 15.1474 16Z" fill="url(#paint0_linear_2_412)"/>
<defs>
<linearGradient id="paint0_linear_2_412" x1="27.9092" y1="4.09079" x2="1.63821" y2="7.20241" gradientUnits="userSpaceOnUse">
<stop stop-color="#D045AE"/>
<stop offset="1" stop-color="#473CC2"/>
</linearGradient>
</defs>
</svg>
