<svg width="32" height="32" viewBox="0 0 32 32" fill="none" xmlns="http://www.w3.org/2000/svg">
<path fill-rule="evenodd" clip-rule="evenodd" d="M18.2543 6L18.4999 8.25733C18.9175 8.39216 19.3197 8.56016 19.7048 8.75762L21.4773 7.33485L24.6652 10.5227L23.243 12.2963C23.4396 12.6803 23.6074 13.0818 23.742 13.4985L26 13.7457V18.2543L23.7416 18.5023C23.6072 18.9191 23.4394 19.3205 23.2424 19.7045L24.6652 21.4773L21.4773 24.6652L19.7039 23.2428C19.3197 23.4396 18.9182 23.6074 18.5015 23.742L18.2543 26H13.7457L13.4977 23.7416C13.0801 23.607 12.6779 23.4385 12.2928 23.2411L10.5229 24.6649L7.33506 21.4771L8.75849 19.7063C8.5606 19.3205 8.39194 18.9173 8.25711 18.4986L6 18.2543V13.7457L8.25711 13.5001C8.39216 13.0816 8.56082 12.6786 8.75871 12.2926L7.33485 10.5227L10.5229 7.33506L12.2935 8.75849C12.6795 8.5606 13.0827 8.39216 13.5011 8.25711L13.7457 6H18.2543ZM20.3307 9.53747L21.4041 8.67589L23.3244 10.5962L22.4629 11.6708L22.0579 12.1758L22.3529 12.752C22.5258 13.0898 22.6728 13.4418 22.7904 13.8059L22.9895 14.4221L23.6332 14.4926L25 14.6422V17.3581L23.6324 17.5083L22.9886 17.579L22.7899 18.1954C22.6725 18.5592 22.5257 18.9108 22.3527 19.248L22.0567 19.8249L22.4625 20.3305L23.3242 21.4041L21.4039 23.3244L20.3295 22.4627L19.8244 22.0576L19.248 22.3528C18.9101 22.5258 18.5582 22.6728 18.1941 22.7904L17.5779 22.9895L17.5074 23.6332L17.3578 25H14.6419L14.4917 23.6324L14.421 22.9885L13.8045 22.7898C13.4404 22.6724 13.0881 22.5251 12.7491 22.3512L12.1717 22.0551L11.666 22.4619L10.5954 23.3232L8.67655 21.4043L9.5379 20.3328L9.94439 19.8271L9.64824 19.2498C9.47421 18.9106 9.32662 18.5574 9.20897 18.1921L9.01001 17.5743L8.36474 17.5044L7 17.3567V14.6428L8.36531 14.4942L9.00969 14.424L9.20877 13.8072C9.3267 13.4418 9.47439 13.0886 9.64857 12.7489L9.94464 12.1714L9.53787 11.6658L8.67662 10.5952L10.5956 8.67655L11.6669 9.53786L12.1725 9.94431L12.7497 9.64835C13.0891 9.47437 13.4425 9.32683 13.8083 9.20877L14.4255 9.00959L14.4953 8.36484L14.6432 7H17.3572L17.5058 8.36552L17.5759 9.00981L18.1927 9.20895C18.5577 9.3268 18.91 9.47392 19.2485 9.64746L19.8253 9.9432L20.3307 9.53747ZM19.2857 16C19.2857 17.8108 17.8108 19.2857 16 19.2857C14.1892 19.2857 12.7143 17.8108 12.7143 16C12.7143 14.1892 14.1892 12.7143 16 12.7143C17.8108 12.7143 19.2857 14.1892 19.2857 16ZM20.2857 16C20.2857 18.3631 18.3631 20.2857 16 20.2857C13.6369 20.2857 11.7143 18.3631 11.7143 16C11.7143 13.6369 13.6369 11.7143 16 11.7143C18.3631 11.7143 20.2857 13.6369 20.2857 16Z" fill="url(#paint0_linear_2_406)"/>
<defs>
<linearGradient id="paint0_linear_2_406" x1="26" y1="6" x2="3.9406" y2="8.61279" gradientUnits="userSpaceOnUse">
<stop stop-color="#D045AE"/>
<stop offset="1" stop-color="#473CC2"/>
</linearGradient>
</defs>
</svg>
