<svg width="32" height="32" viewBox="0 0 32 32"  xmlns="http://www.w3.org/2000/svg"><path fill-rule="evenodd" clip-rule="evenodd" d="M12 10.7502C12 8.54096 13.791 6.75 16.0002 6.75C18.2095 6.75 20.0005 8.54096 20.0005 10.7502C20.0005 12.9595 18.2095 14.7505 16.0002 14.7505C13.791 14.7505 12 12.9595 12 10.7502ZM16.0002 7.75C14.3432 7.75 13 9.09325 13 10.7502C13 12.4072 14.3432 13.7505 16.0002 13.7505C17.6572 13.7505 19.0005 12.4072 19.0005 10.7502C19.0005 9.09325 17.6572 7.75 16.0002 7.75ZM19.1995 15.4622L19.4223 15.5121C20.5408 15.7628 21.5295 16.4473 22.2231 17.4235C23.0518 18.5869 23.5 20.0253 23.5 21.506C23.5 22.7399 22.7902 23.8863 21.6658 24.2833L21.6643 24.2838C17.9774 25.5721 14.0271 25.5721 10.3402 24.2838L10.3386 24.2833C9.21564 23.8868 8.5 22.7415 8.5 21.506C8.5 20.0251 8.94836 18.5864 9.77725 17.423L9.77778 17.4222C10.4748 16.4476 11.4583 15.7624 12.5779 15.512L12.8006 15.4623L12.9841 15.5978C14.8203 16.9544 17.1797 16.9544 19.0159 15.5978L19.1995 15.4622ZM12.5866 16.542C11.8122 16.7685 11.1124 17.2753 10.5914 18.0037C9.88867 18.9902 9.5 20.224 9.5 21.506C9.5 22.38 10.0041 23.1043 10.6708 23.3401C14.1437 24.5533 17.8608 24.5533 21.3336 23.3401C21.9989 23.1048 22.5 22.3817 22.5 21.506C22.5 20.2238 22.1112 18.9898 21.4083 18.0032L21.4079 18.0027C20.8919 17.2764 20.1893 16.7692 19.4133 16.542C17.3186 17.973 14.6813 17.973 12.5866 16.542Z"/></svg>