<svg width="32" height="32" viewBox="0 0 32 32" xmlns="http://www.w3.org/2000/svg"><path fill-rule="evenodd" clip-rule="evenodd" d="M9.95001 7C9.12615 7 8.45001 7.67614 8.45001 8.5V20.5C8.45001 20.9641 8.57754 21.3665 8.75574 21.6385C8.93916 21.9184 9.12824 22 9.25001 22H9.25411H9.25821H9.26231H9.2664H9.27049H9.27458H9.27867H9.28275H9.28683H9.29091H9.29499H9.29906H9.30313H9.3072H9.31127H9.31533H9.31939H9.32345H9.3275H9.33156H9.33561H9.33965H9.3437H9.34774H9.35178H9.35581H9.35985H9.36388H9.3679H9.37193H9.37595H9.37997H9.38398H9.388H9.39201H9.39601H9.40001H9.40401H9.40801H9.41201H9.416H9.41998H9.42397H9.42795H9.43193H9.4359H9.43987H9.44384H9.4478H9.45176H9.45572H9.45968H9.46363H9.46757H9.47152H9.47546H9.47939H9.48333H9.48726H9.49118H9.4951H9.49902H9.50294H9.50685H9.51076H9.51466H9.51856H9.52246H9.52635H9.53024H9.53412H9.538H9.54188H9.54575H9.54962H9.55349H9.55735H9.5612H9.56506H9.56891H9.57275H9.57659H9.58043H9.58426H9.58809H9.59191H9.59573H9.59955H9.60336H9.60717H9.61097H9.61477H9.61856H9.62235H9.62614H9.62992H9.6337H9.63747H9.64124H9.645H9.64876H9.65251H9.65626H9.66001H9.66375H9.66748H9.67121H9.67494H9.67866H9.68238H9.68609H9.6898H9.6935H9.6972H9.70089H9.70458H9.70826H9.71194H9.71561H9.71928H9.72295H9.7266H9.73026H9.73391H9.73755H9.74119H9.74482H9.74845H9.75207H9.75569H9.7593H9.76291H9.76651H9.77011H9.7737H9.77729H9.78087H9.78444H9.78801H9.79158H9.79514H9.79869H9.80224H9.80578H9.80932H9.81285H9.81638H9.8199H9.82341H9.82692H9.83043H9.83393H9.83742H9.84091H9.84439H9.84786H9.85133H9.8548H9.85825H9.86171H9.86515H9.86859H9.87203H9.87546H9.87888H9.8823H9.88571H9.88911H9.89251H9.8959H9.89929H9.90267H9.90604H9.90941H9.91277H9.91613H9.91948H9.92282H9.92616H9.92949H9.93281H9.93613H9.93944H9.94275H9.94605H9.94934H9.95263H9.9559H9.95918H9.96244H9.9657H9.96896H9.9722H9.97544H9.97868H9.98191H9.98513H9.98834H9.99155H9.99475H9.99794H10.0011H10.0043H10.0075H10.0106H10.0138H10.017H10.0201H10.0232H10.0264H10.0295H10.0326H10.0357H10.0388H10.0419H10.045H10.0481H10.0512H10.0542H10.0573H10.0604H10.0634H10.0664H10.0695H10.0725H10.0755H10.0785H10.0815H10.0845H10.0875H10.0905H10.0935H10.0964H10.0994H10.1023H10.1053H10.1082H10.1111H10.1141H10.117H10.1199H10.1228H10.1257H10.1285H10.1314H10.1343H10.1371H10.14H10.1428H10.1457H10.1485H10.1513H10.1541H10.1569H10.1597H10.1625H10.1653H10.1681H10.1708H10.1736H10.1763H10.1791H10.1818H10.1845H10.1872H10.1899H10.1926H10.1953H10.198H10.2007H10.2033H10.206H10.2087H10.2113H10.2139H10.2165H10.2192H10.2218H10.2244H10.227H10.2295H10.2321H10.2347H10.2372H10.2398H10.2423H10.2448H10.2474H10.2499H10.2524H10.2549H10.2573H10.2598H10.2623H10.2647H10.2672H10.2696H10.2721H10.2745H10.2769H10.2793H10.2817H10.2841H10.2865H10.2888H10.2912H10.2935H10.2959H10.2982H10.3005H10.3029H10.3052H10.3075H10.3097H10.312H10.3143H10.3165H10.3188H10.321H10.3233H10.3255H10.3277H10.3299H10.3321H10.3343H10.3364H10.3386H10.3407H10.3429H10.345H10.3472H10.3493H10.3514H10.3535H10.3556H10.3576H10.3597H10.3617H10.3638H10.3658H10.3679H10.3699H10.3719H10.3739H10.3759H10.3778H10.3798H10.3818H10.3837H10.3856H10.3876H10.3895H10.3914H10.3933H10.3952H10.3971H10.3989H10.4008H10.4026H10.4045H10.4063H10.4081H10.4099H10.4117H10.4135H10.4152H10.417H10.4188H10.4205H10.4222H10.4239H10.4257H10.4274H10.429H10.4307H10.4324H10.434H10.4357H10.4373H10.4389H10.4406H10.4422H10.4437H10.4453H10.4469H10.4485H10.45H10.4515H10.4531H10.4546H10.4561H10.4576H10.4591H10.4605H10.462H10.4634H10.4649H10.4663H10.4677H10.4691H10.4705H10.4719H10.4733H10.4746H10.476H10.4773H10.4786H10.4799H10.4812H10.4825H10.4838H10.4851H10.4863H10.4876H10.4888H10.49H10.4912H10.4924H10.4936H10.4948H10.496H10.4971H10.4982H10.4994H10.5005H10.5016H10.5027H10.5038H10.5048H10.5059H10.5069H10.508H10.509H10.51H10.511H10.512H10.513H10.5139H10.5149H10.5158H10.5167H10.5176H10.5185H10.5194H10.5203H10.5212H10.522H10.5229H10.5237H10.5245H10.5253H10.5261H10.5269H10.5276H10.5284H10.5291H10.5299H10.5306H10.5313H10.532H10.5326H10.5333H10.534H10.5346H10.5352H10.5358H10.5364H10.537H10.5376H10.5382H10.5387H10.5393H10.5398H10.5403H10.5408H10.5413H10.5418H10.5422H10.5427H10.5431H10.5435H10.5439H10.5443H10.5447H10.5451H10.5454H10.5458H10.5461H10.5464H10.5467H10.547H10.5473H10.5476H10.5478H10.548H10.5483H10.5485H10.5487H10.5489H10.549H10.5492H10.5493H10.5495H10.5496H10.5497H10.5498H10.5498H10.5499H10.55H10.55H10.55L10.55 22.5L10.55 23H10.55H10.55H10.5499H10.5498H10.5498H10.5497H10.5496H10.5495H10.5493H10.5492H10.549H10.5489H10.5487H10.5485H10.5483H10.548H10.5478H10.5476H10.5473H10.547H10.5467H10.5464H10.5461H10.5458H10.5454H10.5451H10.5447H10.5443H10.5439H10.5435H10.5431H10.5427H10.5422H10.5418H10.5413H10.5408H10.5403H10.5398H10.5393H10.5387H10.5382H10.5376H10.537H10.5364H10.5358H10.5352H10.5346H10.534H10.5333H10.5326H10.532H10.5313H10.5306H10.5299H10.5291H10.5284H10.5276H10.5269H10.5261H10.5253H10.5245H10.5237H10.5229H10.522H10.5212H10.5203H10.5194H10.5185H10.5176H10.5167H10.5158H10.5149H10.5139H10.513H10.512H10.511H10.51H10.509H10.508H10.5069H10.5059H10.5048H10.5038H10.5027H10.5016H10.5005H10.4994H10.4982H10.4971H10.496H10.4948H10.4936H10.4924H10.4912H10.49H10.4888H10.4876H10.4863H10.4851H10.4838H10.4825H10.4812H10.4799H10.4786H10.4773H10.476H10.4746H10.4733H10.4719H10.4705H10.4691H10.4677H10.4663H10.4649H10.4634H10.462H10.4605H10.4591H10.4576H10.4561H10.4546H10.4531H10.4515H10.45H10.4485H10.4469H10.4453H10.4437H10.4422H10.4406H10.4389H10.4373H10.4357H10.434H10.4324H10.4307H10.429H10.4274H10.4257H10.4239H10.4222H10.4205H10.4188H10.417H10.4152H10.4135H10.4117H10.4099H10.4081H10.4063H10.4045H10.4026H10.4008H10.3989H10.3971H10.3952H10.3933H10.3914H10.3895H10.3876H10.3856H10.3837H10.3818H10.3798H10.3778H10.3759H10.3739H10.3719H10.3699H10.3679H10.3658H10.3638H10.3617H10.3597H10.3576H10.3556H10.3535H10.3514H10.3493H10.3472H10.345H10.3429H10.3407H10.3386H10.3364H10.3343H10.3321H10.3299H10.3277H10.3255H10.3233H10.321H10.3188H10.3165H10.3143H10.312H10.3097H10.3075H10.3052H10.3029H10.3005H10.2982H10.2959H10.2935H10.2912H10.2888H10.2865H10.2841H10.2817H10.2793H10.2769H10.2745H10.2721H10.2696H10.2672H10.2647H10.2623H10.2598H10.2573H10.2549H10.2524H10.2499H10.2474H10.2448H10.2423H10.2398H10.2372H10.2347H10.2321H10.2295H10.227H10.2244H10.2218H10.2192H10.2165H10.2139H10.2113H10.2087H10.206H10.2033H10.2007H10.198H10.1953H10.1926H10.1899H10.1872H10.1845H10.1818H10.1791H10.1763H10.1736H10.1708H10.1681H10.1653H10.1625H10.1597H10.1569H10.1541H10.1513H10.1485H10.1457H10.1428H10.14H10.1371H10.1343H10.1314H10.1285H10.1257H10.1228H10.1199H10.117H10.1141H10.1111H10.1082H10.1053H10.1023H10.0994H10.0964H10.0935H10.0905H10.0875H10.0845H10.0815H10.0785H10.0755H10.0725H10.0695H10.0664H10.0634H10.0604H10.0573H10.0542H10.0512H10.0481H10.045H10.0419H10.0388H10.0357H10.0326H10.0295H10.0264H10.0232H10.0201H10.017H10.0138H10.0106H10.0075H10.0043H10.0011H9.99794H9.99475H9.99155H9.98834H9.98513H9.98191H9.97868H9.97544H9.9722H9.96896H9.9657H9.96244H9.95918H9.9559H9.95263H9.94934H9.94605H9.94275H9.93944H9.93613H9.93281H9.92949H9.92616H9.92282H9.91948H9.91613H9.91277H9.90941H9.90604H9.90267H9.89929H9.8959H9.89251H9.88911H9.88571H9.8823H9.87888H9.87546H9.87203H9.86859H9.86515H9.86171H9.85825H9.8548H9.85133H9.84786H9.84439H9.84091H9.83742H9.83393H9.83043H9.82692H9.82341H9.8199H9.81638H9.81285H9.80932H9.80578H9.80224H9.79869H9.79514H9.79158H9.78801H9.78444H9.78087H9.77729H9.7737H9.77011H9.76651H9.76291H9.7593H9.75569H9.75207H9.74845H9.74482H9.74119H9.73755H9.73391H9.73026H9.7266H9.72295H9.71928H9.71561H9.71194H9.70826H9.70458H9.70089H9.6972H9.6935H9.6898H9.68609H9.68238H9.67866H9.67494H9.67121H9.66748H9.66375H9.66001H9.65626H9.65251H9.64876H9.645H9.64124H9.63747H9.6337H9.62992H9.62614H9.62235H9.61856H9.61477H9.61097H9.60717H9.60336H9.59955H9.59573H9.59191H9.58809H9.58426H9.58043H9.57659H9.57275H9.56891H9.56506H9.5612H9.55735H9.55349H9.54962H9.54575H9.54188H9.538H9.53412H9.53024H9.52635H9.52246H9.51856H9.51466H9.51076H9.50685H9.50294H9.49902H9.4951H9.49118H9.48726H9.48333H9.47939H9.47546H9.47152H9.46757H9.46363H9.45968H9.45572H9.45176H9.4478H9.44384H9.43987H9.4359H9.43193H9.42795H9.42397H9.41998H9.416H9.41201H9.40801H9.40401H9.40001H9.39601H9.39201H9.388H9.38398H9.37997H9.37595H9.37193H9.3679H9.36388H9.35985H9.35581H9.35178H9.34774H9.3437H9.33965H9.33561H9.33156H9.3275H9.32345H9.31939H9.31533H9.31127H9.3072H9.30313H9.29906H9.29499H9.29091H9.28683H9.28275H9.27867H9.27458H9.27049H9.2664H9.26231H9.25821H9.25411H9.25001C8.67178 23 8.21087 22.6316 7.91928 22.1865C7.62249 21.7335 7.45001 21.1359 7.45001 20.5V8.5C7.45001 7.12386 8.57387 6 9.95001 6H17.95C18.5859 6 19.1835 6.17247 19.6365 6.46927C20.0816 6.76085 20.45 7.22177 20.45 7.8V7.8041V7.8082V7.81229V7.81639V7.82048V7.82457V7.82865V7.83274V7.83682V7.8409V7.84497V7.84905V7.85312V7.85719V7.86125V7.86532V7.86938V7.87344V7.87749V7.88154V7.88559V7.88964V7.89369V7.89773V7.90177V7.9058V7.90983V7.91386V7.91789V7.92192V7.92594V7.92996V7.93397V7.93798V7.94199V7.946V7.95V7.954V7.958V7.96199V7.96598V7.96997V7.97395V7.97794V7.98191V7.98589V7.98986V7.99383V7.99779V8.00175V8.00571V8.00966V8.01361V8.01756V8.0215V8.02544V8.02938V8.03331V8.03724V8.04117V8.04509V8.04901V8.05292V8.05684V8.06074V8.06465V8.06855V8.07244V8.07634V8.08022V8.08411V8.08799V8.09187V8.09574V8.09961V8.10347V8.10733V8.11119V8.11504V8.11889V8.12274V8.12658V8.13042V8.13425V8.13808V8.1419V8.14572V8.14954V8.15335V8.15716V8.16096V8.16476V8.16855V8.17234V8.17613V8.17991V8.18368V8.18746V8.19122V8.19499V8.19875V8.2025V8.20625V8.20999V8.21373V8.21747V8.2212V8.22493V8.22865V8.23237V8.23608V8.23979V8.24349V8.24719V8.25088V8.25457V8.25825V8.26193V8.2656V8.26927V8.27293V8.27659V8.28025V8.28389V8.28754V8.29118V8.29481V8.29844V8.30206V8.30568V8.30929V8.3129V8.3165V8.3201V8.32369V8.32727V8.33086V8.33443V8.338V8.34157V8.34513V8.34868V8.35223V8.35577V8.35931V8.36284V8.36637V8.36989V8.3734V8.37691V8.38042V8.38391V8.38741V8.39089V8.39438V8.39785V8.40132V8.40478V8.40824V8.41169V8.41514V8.41858V8.42202V8.42544V8.42887V8.43228V8.43569V8.4391V8.4425V8.44589V8.44928V8.45266V8.45603V8.4594V8.46276V8.46612V8.46947V8.47281V8.47615V8.47948V8.4828V8.48612V8.48943V8.49274V8.49603V8.49933V8.50261V8.50589V8.50917V8.51243V8.51569V8.51895V8.52219V8.52543V8.52867V8.53189V8.53511V8.53833V8.54153V8.54473V8.54793V8.55111V8.55429V8.55747V8.56063V8.56379V8.56694V8.57009V8.57323V8.57636V8.57948V8.5826V8.58571V8.58882V8.59191V8.595V8.59808V8.60116V8.60423V8.60729V8.61034V8.61339V8.61643V8.61946V8.62248V8.6255V8.62851V8.63151V8.63451V8.63749V8.64047V8.64345V8.64641V8.64937V8.65232V8.65526V8.6582V8.66113V8.66405V8.66696V8.66986V8.67276V8.67565V8.67853V8.68141V8.68427V8.68713V8.68998V8.69282V8.69566V8.69848V8.7013V8.70411V8.70692V8.70971V8.7125V8.71528V8.71805V8.72081V8.72357V8.72632V8.72905V8.73178V8.73451V8.73722V8.73993V8.74263V8.74532V8.748V8.75067V8.75333V8.75599V8.75864V8.76128V8.76391V8.76653V8.76915V8.77175V8.77435V8.77694V8.77952V8.78209V8.78465V8.78721V8.78975V8.79229V8.79482V8.79734V8.79985V8.80235V8.80485V8.80733V8.80981V8.81227V8.81473V8.81718V8.81962V8.82205V8.82448V8.82689V8.82929V8.83169V8.83408V8.83645V8.83882V8.84118V8.84353V8.84587V8.8482V8.85053V8.85284V8.85514V8.85744V8.85972V8.862V8.86427V8.86653V8.86877V8.87101V8.87324V8.87546V8.87767V8.87987V8.88207V8.88425V8.88642V8.88858V8.89074V8.89288V8.89501V8.89714V8.89925V8.90136V8.90345V8.90554V8.90761V8.90968V8.91174V8.91378V8.91582V8.91785V8.91986V8.92187V8.92387V8.92585V8.92783V8.9298V8.93175V8.9337V8.93563V8.93756V8.93948V8.94138V8.94328V8.94517V8.94704V8.94891V8.95076V8.95261V8.95444V8.95626V8.95808V8.95988V8.96167V8.96346V8.96523V8.96699V8.96874V8.97048V8.97221V8.97393V8.97564V8.97734V8.97903V8.9807V8.98237V8.98402V8.98567V8.9873V8.98893V8.99054V8.99214V8.99373V8.99531V8.99688V8.99844V8.99999V9.00152V9.00305V9.00456V9.00607V9.00756V9.00904V9.01051V9.01197V9.01342V9.01486V9.01628V9.0177V9.0191V9.02049V9.02187V9.02324V9.0246V9.02595V9.02729V9.02861V9.02992V9.03122V9.03251V9.03379V9.03506V9.03632V9.03756V9.03879V9.04001V9.04122V9.04242V9.04361V9.04478V9.04595V9.0471V9.04824V9.04936V9.05048V9.05159V9.05268V9.05376V9.05483V9.05588V9.05693V9.05796V9.05898V9.05999V9.06099V9.06197V9.06295V9.06391V9.06486V9.06579V9.06672V9.06763V9.06853V9.06942V9.0703V9.07116V9.07201V9.07285V9.07368V9.07449V9.0753V9.07609V9.07686V9.07763V9.07838V9.07912V9.07985V9.08056V9.08127V9.08196V9.08263V9.0833V9.08395V9.08459V9.08522V9.08583V9.08643V9.08702V9.0876V9.08816V9.08871V9.08925V9.08978V9.09029V9.09079V9.09127V9.09175V9.09221V9.09266V9.09309V9.09351V9.09392V9.09432V9.0947V9.09507V9.09542V9.09577V9.0961V9.09641V9.09672V9.09701V9.09728V9.09755V9.0978V9.09803V9.09826V9.09847V9.09866V9.09885V9.09902V9.09917V9.09932V9.09945V9.09956V9.09966V9.09975V9.09983V9.09989V9.09994V9.09997V9.09999L19.95 9.1L19.45 9.09999V9.09997V9.09994V9.09989V9.09983V9.09975V9.09966V9.09956V9.09945V9.09932V9.09917V9.09902V9.09885V9.09866V9.09847V9.09826V9.09803V9.0978V9.09755V9.09728V9.09701V9.09672V9.09641V9.0961V9.09577V9.09542V9.09507V9.0947V9.09432V9.09392V9.09351V9.09309V9.09266V9.09221V9.09175V9.09127V9.09079V9.09029V9.08978V9.08925V9.08871V9.08816V9.0876V9.08702V9.08643V9.08583V9.08522V9.08459V9.08395V9.0833V9.08263V9.08196V9.08127V9.08056V9.07985V9.07912V9.07838V9.07763V9.07686V9.07609V9.0753V9.07449V9.07368V9.07285V9.07201V9.07116V9.0703V9.06942V9.06853V9.06763V9.06672V9.06579V9.06486V9.06391V9.06295V9.06197V9.06099V9.05999V9.05898V9.05796V9.05693V9.05588V9.05483V9.05376V9.05268V9.05159V9.05048V9.04936V9.04824V9.0471V9.04595V9.04478V9.04361V9.04242V9.04122V9.04001V9.03879V9.03756V9.03632V9.03506V9.03379V9.03251V9.03122V9.02992V9.02861V9.02729V9.02595V9.0246V9.02324V9.02187V9.02049V9.0191V9.0177V9.01628V9.01486V9.01342V9.01197V9.01051V9.00904V9.00756V9.00607V9.00456V9.00305V9.00152V8.99999V8.99844V8.99688V8.99531V8.99373V8.99214V8.99054V8.98893V8.9873V8.98567V8.98402V8.98237V8.9807V8.97903V8.97734V8.97564V8.97393V8.97221V8.97048V8.96874V8.96699V8.96523V8.96346V8.96167V8.95988V8.95808V8.95626V8.95444V8.95261V8.95076V8.94891V8.94704V8.94517V8.94328V8.94138V8.93948V8.93756V8.93563V8.9337V8.93175V8.9298V8.92783V8.92585V8.92387V8.92187V8.91986V8.91785V8.91582V8.91378V8.91174V8.90968V8.90761V8.90554V8.90345V8.90136V8.89925V8.89714V8.89501V8.89288V8.89074V8.88858V8.88642V8.88425V8.88207V8.87987V8.87767V8.87546V8.87324V8.87101V8.86877V8.86653V8.86427V8.862V8.85972V8.85744V8.85514V8.85284V8.85053V8.8482V8.84587V8.84353V8.84118V8.83882V8.83645V8.83408V8.83169V8.82929V8.82689V8.82448V8.82205V8.81962V8.81718V8.81473V8.81227V8.80981V8.80733V8.80485V8.80235V8.79985V8.79734V8.79482V8.79229V8.78975V8.78721V8.78465V8.78209V8.77952V8.77694V8.77435V8.77175V8.76915V8.76653V8.76391V8.76128V8.75864V8.75599V8.75333V8.75067V8.748V8.74532V8.74263V8.73993V8.73722V8.73451V8.73178V8.72905V8.72632V8.72357V8.72081V8.71805V8.71528V8.7125V8.70971V8.70692V8.70411V8.7013V8.69848V8.69566V8.69282V8.68998V8.68713V8.68427V8.68141V8.67853V8.67565V8.67276V8.66986V8.66696V8.66405V8.66113V8.6582V8.65526V8.65232V8.64937V8.64641V8.64345V8.64047V8.63749V8.63451V8.63151V8.62851V8.6255V8.62248V8.61946V8.61643V8.61339V8.61034V8.60729V8.60423V8.60116V8.59808V8.595V8.59191V8.58882V8.58571V8.5826V8.57948V8.57636V8.57323V8.57009V8.56694V8.56379V8.56063V8.55747V8.55429V8.55111V8.54793V8.54473V8.54153V8.53833V8.53511V8.53189V8.52867V8.52543V8.52219V8.51895V8.51569V8.51243V8.50917V8.50589V8.50261V8.49933V8.49603V8.49274V8.48943V8.48612V8.4828V8.47948V8.47615V8.47281V8.46947V8.46612V8.46276V8.4594V8.45603V8.45266V8.44928V8.44589V8.4425V8.4391V8.43569V8.43228V8.42887V8.42544V8.42202V8.41858V8.41514V8.41169V8.40824V8.40478V8.40132V8.39785V8.39438V8.39089V8.38741V8.38391V8.38042V8.37691V8.3734V8.36989V8.36637V8.36284V8.35931V8.35577V8.35223V8.34868V8.34513V8.34157V8.338V8.33443V8.33086V8.32727V8.32369V8.3201V8.3165V8.3129V8.30929V8.30568V8.30206V8.29844V8.29481V8.29118V8.28754V8.28389V8.28025V8.27659V8.27293V8.26927V8.2656V8.26193V8.25825V8.25457V8.25088V8.24719V8.24349V8.23979V8.23608V8.23237V8.22865V8.22493V8.2212V8.21747V8.21373V8.20999V8.20625V8.2025V8.19875V8.19499V8.19122V8.18746V8.18368V8.17991V8.17613V8.17234V8.16855V8.16476V8.16096V8.15716V8.15335V8.14954V8.14572V8.1419V8.13808V8.13425V8.13042V8.12658V8.12274V8.11889V8.11504V8.11119V8.10733V8.10347V8.09961V8.09574V8.09187V8.08799V8.08411V8.08022V8.07634V8.07244V8.06855V8.06465V8.06074V8.05684V8.05292V8.04901V8.04509V8.04117V8.03724V8.03331V8.02938V8.02544V8.0215V8.01756V8.01361V8.00966V8.00571V8.00175V7.99779V7.99383V7.98986V7.98589V7.98191V7.97794V7.97395V7.96997V7.96598V7.96199V7.958V7.954V7.95V7.946V7.94199V7.93798V7.93397V7.92996V7.92594V7.92192V7.91789V7.91386V7.90983V7.9058V7.90177V7.89773V7.89369V7.88964V7.88559V7.88154V7.87749V7.87344V7.86938V7.86532V7.86125V7.85719V7.85312V7.84905V7.84497V7.8409V7.83682V7.83274V7.82865V7.82457V7.82048V7.81639V7.81229V7.8082V7.8041V7.8C19.45 7.67823 19.3684 7.48915 19.0885 7.30573C18.8165 7.12753 18.4141 7 17.95 7H9.95001ZM22.55 11C23.15 11 23.55 11.4 23.55 12V24C23.55 24.6 23.15 25 22.55 25H13.55C12.95 25 12.55 24.6 12.55 24V12C12.55 11.4 12.95 11 13.55 11H22.55ZM22.55 10H13.55C12.45 10 11.55 10.9 11.55 12V24C11.55 25.1 12.45 26 13.55 26H22.55C23.65 26 24.55 25.1 24.55 24V12C24.55 10.9 23.65 10 22.55 10ZM14.55 14H21.55V15H14.55V14ZM21.55 17H14.55V18H21.55V17ZM14.55 20H21.55V21H14.55V20Z"/></svg>