<svg width="32" height="32" viewBox="0 0 32 32" fill="none" xmlns="http://www.w3.org/2000/svg">
<path fill-rule="evenodd" clip-rule="evenodd" d="M26.0003 16.4267V16.4359C26.0003 16.575 25.9307 16.6937 25.8286 16.7733L17.5933 25.0086C17.4276 25.1742 17.1593 25.1742 16.9928 25.0086C16.8271 24.8425 16.8271 24.5737 16.9928 24.4081L25.1306 16.2702V13.392C25.1306 13.152 25.3259 12.9572 25.5655 12.9572C25.8059 12.9572 26.0003 13.152 26.0003 13.392V16.4241C26.0003 16.425 26.0003 16.4254 26.0003 16.4267ZM14.1772 25.8156C14.1633 25.8365 14.1542 25.86 14.1359 25.8782C14.0503 25.9635 13.9372 26.003 13.825 26.0004C13.7128 26.003 13.5998 25.9635 13.5141 25.8782C13.4959 25.86 13.4872 25.8365 13.4728 25.8156L6.18459 18.527C6.16372 18.513 6.14067 18.5039 6.12197 18.4856C6.03631 18.4 5.99761 18.2874 5.99979 18.1752C5.99718 18.063 6.03631 17.9499 6.12197 17.8643C6.14067 17.846 6.16372 17.8373 6.18459 17.823L16.097 7.91054C16.1766 7.80879 16.2949 7.73878 16.434 7.73878H16.4431C16.444 7.73878 16.4449 7.73878 16.4458 7.73878H18.1977C18.2555 7.08566 18.5221 6.51255 18.9239 6.13729L18.9308 6.14512C19.0156 6.05511 19.1321 5.99945 19.2604 5.99945C19.5178 5.99945 19.7266 6.22208 19.7266 6.49646C19.7266 6.65953 19.6483 6.79693 19.5348 6.88738C19.3265 7.07957 19.1782 7.38265 19.1287 7.73878H21.205C21.2059 7.73878 21.2067 7.73878 21.2085 7.73878H21.2172C21.3563 7.73878 21.4755 7.80835 21.5542 7.91054L24.0892 10.4456C24.191 10.5252 24.261 10.6439 24.261 10.783V10.7922C24.261 10.793 24.261 10.7939 24.261 10.7948V15.554C24.261 15.5549 24.261 15.5558 24.261 15.5571V15.5662C24.261 15.7053 24.1914 15.824 24.0892 15.9032L14.1772 25.8156ZM23.3913 10.9487L21.0515 8.60888H19.2195C19.2961 8.80194 19.4039 8.96631 19.5348 9.08719C19.5526 9.10154 19.5748 9.11024 19.59 9.1272L19.5978 9.11937C20.0505 9.54246 20.3479 10.2099 20.3479 10.9691C20.3479 10.9874 20.3436 11.0035 20.3427 11.0213C20.8632 11.3218 21.2176 11.8779 21.2176 12.5224C21.2176 13.4829 20.4388 14.2617 19.4783 14.2617C18.5177 14.2617 17.7389 13.4829 17.7389 12.5224C17.7389 11.5888 18.476 10.833 19.4 10.7909C19.3609 10.4047 19.2082 10.0743 18.9873 9.86989C18.9695 9.85554 18.9473 9.84684 18.9313 9.82988L18.9243 9.83771C18.6008 9.5355 18.3621 9.10502 18.249 8.60888H16.5997L7.03338 18.1752L13.825 24.9668L23.3913 15.4005V10.9487V10.9487ZM18.9869 12.0688C19.0947 11.9693 19.183 11.8353 19.2552 11.6849C18.8834 11.784 18.6082 12.1197 18.6082 12.5219C18.6082 13.002 18.9978 13.3916 19.4778 13.3916C19.9583 13.3916 20.3475 13.002 20.3475 12.5219C20.3475 12.3163 20.2736 12.1301 20.154 11.981C19.8866 12.6528 19.59 12.8111 19.59 12.8111C19.5061 12.9011 19.3896 12.9563 19.2604 12.9563C19.003 12.9563 18.7951 12.7337 18.7951 12.4593C18.7951 12.2971 18.873 12.1597 18.9869 12.0688ZM10.9056 17.4294C11.0717 17.2638 11.3404 17.2638 11.5061 17.4294L14.5712 20.4946C14.7369 20.6602 14.7369 20.929 14.5712 21.0951C14.4055 21.2607 14.1364 21.2607 13.9707 21.0951L10.9056 18.0299C10.7399 17.8643 10.7399 17.5955 10.9056 17.4294ZM12.6449 15.6901C12.811 15.5244 13.0797 15.5244 13.2454 15.6901L16.3105 18.7552C16.4758 18.9209 16.4758 19.1896 16.3105 19.3557C16.1448 19.5214 15.8757 19.5214 15.71 19.3557L12.6449 16.2906C12.4792 16.1249 12.4792 15.8562 12.6449 15.6901Z" fill="url(#paint0_linear_2_362)"/>
<defs>
<linearGradient id="paint0_linear_2_362" x1="26.0003" y1="5.99945" x2="3.94019" y2="8.61227" gradientUnits="userSpaceOnUse">
<stop stop-color="#D045AE"/>
<stop offset="1" stop-color="#473CC2"/>
</linearGradient>
</defs>
</svg>
