<svg width="32" height="32" viewBox="0 0 32 32" fill="none" xmlns="http://www.w3.org/2000/svg">
<path fill-rule="evenodd" clip-rule="evenodd" d="M26.1833 12.7434V12.7149C26.1813 12.7 26.1813 12.6849 26.1833 12.6701V12.6212V12.5641L26.1588 12.5234L26.1344 12.503C26.1202 12.4848 26.1038 12.4684 26.0855 12.4542V12.4338L22.9246 10.0957V7.04073C22.9246 6.9327 22.8817 6.82909 22.8053 6.7527C22.7289 6.67631 22.6253 6.6334 22.5173 6.6334H18.3055L16.2444 5.08554H16.224C16.1999 5.07005 16.1739 5.05773 16.1466 5.04888C16.1264 5.03 16.1029 5.01483 16.0774 5.00407C16.0259 4.99864 15.9741 4.99864 15.9226 5.00407C15.8984 5.00856 15.875 5.01681 15.8534 5.02851C15.8261 5.03736 15.8001 5.04968 15.776 5.06517H15.7556L13.6945 6.6334H9.48269C9.37466 6.6334 9.27106 6.67631 9.19467 6.7527C9.11828 6.82909 9.07536 6.9327 9.07536 7.04073V10.0957L5.97964 12.4175L5.95928 12.4379L5.91447 12.4868L5.89003 12.5071L5.86559 12.5479C5.86559 12.5479 5.86559 12.5845 5.84522 12.6049V12.6538C5.84746 12.6686 5.84746 12.6837 5.84522 12.6986L5.81671 12.7434V26.5926C5.81901 26.6304 5.82726 26.6675 5.84115 26.7026V26.7474C5.84968 26.7617 5.85921 26.7753 5.86966 26.7882C5.88667 26.8202 5.90716 26.8502 5.93076 26.8778C5.93076 26.89 5.94534 26.8963 5.96054 26.9029C5.97075 26.9074 5.98124 26.912 5.98779 26.9185C6.00996 26.9336 6.03309 26.9472 6.05704 26.9592C6.10917 26.9845 6.16611 26.9984 6.22404 27H25.776C25.8292 26.9993 25.8818 26.9883 25.9307 26.9674C25.9569 26.9555 25.9815 26.9404 26.0041 26.9226C26.0226 26.9118 26.0404 26.8995 26.057 26.8859C26.0862 26.8582 26.1098 26.8249 26.1263 26.7882L26.1507 26.7556C26.1526 26.7366 26.1526 26.7175 26.1507 26.6985C26.1663 26.6649 26.1773 26.6293 26.1833 26.5926V12.7434ZM6.63137 13.5295L13.4705 18.3727L6.63137 25.5743V13.5295ZM14.1426 18.8533L15.7719 20.0061C15.8409 20.0552 15.9235 20.0816 16.0081 20.0816C16.0928 20.0816 16.1754 20.0552 16.2444 20.0061L17.8737 18.8533L24.8269 26.1853H7.17313L14.1426 18.8533ZM18.5295 18.3808L25.3686 13.5295V25.5743L18.5295 18.3808ZM25.0835 12.7434L22.9246 14.2627V11.114L25.0835 12.7434ZM16 5.92057L16.9491 6.6334H15.0509L16 5.92057ZM22.11 7.44806V14.8411L16 19.167L9.89003 14.8411V7.44806H22.11ZM9.07536 14.2627L6.91651 12.7434L9.07536 11.114V14.2627ZM11.926 10.7067H20.0726C20.1807 10.7067 20.2843 10.6638 20.3607 10.5874C20.437 10.5111 20.48 10.4074 20.48 10.2994C20.48 10.1914 20.437 10.0878 20.3607 10.0114C20.2843 9.935 20.1807 9.89208 20.0726 9.89208H11.926C11.818 9.89208 11.7144 9.935 11.638 10.0114C11.5616 10.0878 11.5187 10.1914 11.5187 10.2994C11.5187 10.4074 11.5616 10.5111 11.638 10.5874C11.7144 10.6638 11.818 10.7067 11.926 10.7067ZM20.0726 14.78H11.926C11.818 14.78 11.7144 14.7371 11.638 14.6607C11.5616 14.5843 11.5187 14.4807 11.5187 14.3727C11.5187 14.2646 11.5616 14.161 11.638 14.0846C11.7144 14.0083 11.818 13.9653 11.926 13.9653H20.0726C20.1807 13.9653 20.2843 14.0083 20.3607 14.0846C20.437 14.161 20.48 14.2646 20.48 14.3727C20.48 14.4807 20.437 14.5843 20.3607 14.6607C20.2843 14.7371 20.1807 14.78 20.0726 14.78Z" fill="url(#paint0_linear_2_414)"/>
<defs>
<linearGradient id="paint0_linear_2_414" x1="26.1833" y1="5" x2="3.67504" y2="7.46801" gradientUnits="userSpaceOnUse">
<stop stop-color="#D045AE"/>
<stop offset="1" stop-color="#473CC2"/>
</linearGradient>
</defs>
</svg>
