<svg width="32" height="32" viewBox="0 0 32 32" fill="none" xmlns="http://www.w3.org/2000/svg">
<path fill-rule="evenodd" clip-rule="evenodd" d="M17.1586 24.6287C17.5575 24.3773 17.9565 24.1259 18.356 23.8745C18.6031 23.7186 18.8451 23.5527 19.0821 23.3717C19.135 23.334 19.1853 23.2963 19.2357 23.2586H19.2358L19.2963 23.2133C19.198 23.2887 19.1728 23.3088 19.2182 23.2736C19.2308 23.2636 19.2434 23.2542 19.256 23.2447C19.2686 23.2353 19.2812 23.2259 19.2938 23.2158C19.3223 23.1927 19.3507 23.1698 19.3791 23.1469C19.4589 23.0826 19.5384 23.0186 19.6165 22.9519C19.9997 22.6276 20.3627 22.2831 20.7055 21.9161C20.8719 21.7401 21.0307 21.5566 21.187 21.3706C21.1992 21.3562 21.2115 21.3418 21.2238 21.3273C21.2933 21.2458 21.3645 21.1624 21.4274 21.0756C21.4029 21.1084 21.3226 21.2121 21.3836 21.1317C21.3868 21.1277 21.39 21.1236 21.3933 21.1194C21.4084 21.1001 21.4246 21.0795 21.4391 21.0588C21.4744 21.0161 21.5071 20.9708 21.5399 20.9256C22.1162 20.1413 22.6002 19.2917 22.9825 18.3981C23.3702 17.4486 23.6415 16.4551 23.7903 15.4393C23.867 14.8429 23.8944 14.2462 23.8944 13.6451V10.7087V9.15037C23.3585 9.08823 22.8244 9.0071 22.2962 8.90619C20.9803 8.65479 19.6896 8.27518 18.4493 7.76987C17.6088 7.42983 16.802 7.03196 16.0047 6.60517C15.7714 6.73296 15.5376 6.85989 15.3007 6.98048C13.051 8.12509 10.6181 8.85653 8.11362 9.14838V9.30592V12.6344C8.11362 12.7138 8.11354 12.7931 8.11345 12.8724C8.11253 13.735 8.11162 14.5938 8.21979 15.4525C8.36929 16.4635 8.64061 17.4543 9.02783 18.4034C9.44417 19.3744 9.98065 20.2852 10.6184 21.1263C10.6208 21.1294 10.6232 21.1324 10.6257 21.1354C10.6351 21.1474 10.6446 21.1594 10.6547 21.1719C10.6723 21.1933 10.69 21.2153 10.7076 21.2373C10.7253 21.2593 10.7429 21.2813 10.7606 21.3027C10.8362 21.3957 10.9118 21.4837 10.99 21.5742C11.1488 21.7577 11.3152 21.9387 11.4841 22.1122C11.8219 22.4591 12.1773 22.7859 12.5529 23.0901C12.6059 23.1354 12.6588 23.1781 12.7143 23.2209C12.7219 23.2275 12.7296 23.2339 12.7372 23.24C12.7388 23.2411 12.7403 23.2422 12.742 23.2435C12.7662 23.2615 12.7903 23.2798 12.8145 23.2981C12.8812 23.3485 12.9483 23.3991 13.0168 23.4471C13.2134 23.5879 13.4151 23.7236 13.6193 23.8544C13.6817 23.8948 13.7451 23.9343 13.8088 23.9741C13.8481 23.9985 13.8874 24.0231 13.9268 24.048C14.3365 24.3056 14.7461 24.5639 15.1558 24.8223C15.4382 25.0004 15.7207 25.1785 16.0032 25.3564C16.3887 25.1139 16.7737 24.8713 17.1586 24.6287ZM9.07913 18.5272C9.07222 18.5108 9.06534 18.4943 9.0585 18.4779L9.07913 18.5272ZM8.20186 15.3269C8.20517 15.3492 8.20821 15.3712 8.21115 15.3932C8.208 15.3711 8.2049 15.349 8.20186 15.3269ZM23.8062 15.3269C23.8031 15.3498 23.7999 15.3727 23.7966 15.3956C23.7996 15.3728 23.8028 15.35 23.8062 15.3269ZM22.9289 18.5272L22.958 18.4578C22.9484 18.481 22.9387 18.5041 22.9289 18.5272ZM19.1487 25.1569C19.1401 25.1628 19.1313 25.1686 19.1224 25.1742C19.0657 25.2094 19.009 25.2452 18.9523 25.281C18.8955 25.3169 18.8388 25.3527 18.7821 25.3879C18.3825 25.6393 17.9836 25.8907 17.5846 26.1421C17.1857 26.3935 16.7868 26.6449 16.3872 26.8963C16.1654 27.0346 15.8427 27.0346 15.6234 26.8963C15.6033 26.8818 15.582 26.8685 15.5612 26.8557C15.5532 26.8507 15.5453 26.8459 15.5377 26.841C14.6579 26.2879 13.7756 25.7323 12.8958 25.1767C11.0858 24.0354 9.55558 22.4742 8.46655 20.634C7.34979 18.7434 6.71705 16.5864 6.61621 14.3942C6.58423 13.6785 6.59107 12.9577 6.59789 12.2381C6.60075 11.9366 6.60361 11.6353 6.60361 11.3347V8.47127C6.60361 8.03635 6.95149 7.74976 7.35988 7.71707C7.69246 7.69044 8.02504 7.65449 8.35762 7.61145C10.0293 7.37266 11.6666 6.9281 13.2286 6.28802C13.7395 6.06961 14.2453 5.83366 14.7385 5.57516C14.9123 5.48416 15.0848 5.38951 15.2577 5.2946C15.3333 5.25316 15.4089 5.21166 15.4847 5.1704C15.4955 5.16437 15.5061 5.15833 15.5166 5.15234C15.5454 5.13588 15.5736 5.11978 15.6032 5.10504C15.8603 4.96928 16.1225 4.96426 16.3847 5.09498C16.4458 5.12445 16.5053 5.15852 16.5645 5.1924C16.581 5.20187 16.5976 5.21134 16.6141 5.22068C17.3213 5.60973 18.0361 5.97372 18.7785 6.28763C20.3408 6.92792 21.9784 7.37261 23.6504 7.61145C23.983 7.65449 24.3156 7.69044 24.6482 7.71707C25.0566 7.74976 25.4045 8.03887 25.4045 8.47127V8.50898C25.4095 9.01532 25.4078 9.52166 25.4061 10.0272C25.4053 10.2798 25.4045 10.5321 25.4045 10.7841V13.5344C25.4045 14.7588 25.286 15.9755 24.981 17.1646C24.5726 18.761 23.8566 20.2946 22.8886 21.6295C21.8699 23.0324 20.6125 24.227 19.1487 25.1569ZM23.8138 7.63411C23.7804 7.62962 23.747 7.62504 23.7136 7.62038C23.7468 7.62475 23.78 7.62912 23.8138 7.63411ZM18.6006 6.21371L18.7739 6.28574C18.716 6.262 18.6582 6.23799 18.6006 6.21371ZM13.4075 6.21371C13.3498 6.23799 13.2921 6.26199 13.2342 6.28573L13.4075 6.21371ZM8.19429 7.63411C8.22809 7.62912 8.26127 7.62475 8.29444 7.62038C8.26107 7.62504 8.22769 7.62962 8.19429 7.63411ZM13.798 18.0748L11.3603 15.6437C11.0628 15.3446 11.083 14.877 11.3603 14.5778C11.6351 14.2786 12.1493 14.2987 12.4292 14.5778L12.7771 14.9247L14.6803 16.8228L14.8114 16.6921L17.7281 13.7834L19.5734 11.9431C19.8709 11.644 20.3397 11.6666 20.6423 11.9431C20.9422 12.2172 20.9221 12.73 20.6423 13.0091L19.9767 13.6728L17.0601 16.5814L15.2148 18.4217C14.9249 18.7108 14.4358 18.7108 14.1459 18.4217L13.798 18.0748Z" fill="url(#paint0_linear_2_410)"/>
<defs>
<linearGradient id="paint0_linear_2_410" x1="25.4078" y1="5" x2="4.57733" y2="7.11012" gradientUnits="userSpaceOnUse">
<stop stop-color="#D045AE"/>
<stop offset="1" stop-color="#473CC2"/>
</linearGradient>
</defs>
</svg>
