<svg width="32" height="32" viewBox="0 0 32 32" fill="none" xmlns="http://www.w3.org/2000/svg">
<path d="M20.0102 18.9182L18.9206 20.0077C18.6425 20.2835 18.2678 20.4399 17.8761 20.4435C17.4845 20.4399 17.1097 20.2835 16.8316 20.0077C16.7241 19.8976 16.6352 19.7707 16.5686 19.632C15.4766 20.2209 14.255 20.5282 13.0143 20.5262C11.2951 20.5232 9.62806 19.9349 8.28782 18.8581C8.13237 18.7296 8.03435 18.5445 8.01533 18.3437C7.99631 18.1429 8.05783 17.9428 8.18638 17.7874C8.31492 17.6319 8.49995 17.5339 8.70076 17.5149C8.90158 17.4959 9.10172 17.5574 9.25717 17.6859C10.3175 18.5522 11.6451 19.0248 13.0143 19.0234C14.2033 19.0234 15.3655 18.6708 16.3541 18.0103C17.3427 17.3498 18.1132 16.411 18.5682 15.3126C19.0232 14.2143 19.1423 13.0056 18.9103 11.8396C18.6783 10.6736 18.1058 9.60249 17.2651 8.76182C16.4244 7.92116 15.3532 7.34866 14.1871 7.11672C13.021 6.88478 11.8123 7.00382 10.7138 7.45878C9.6154 7.91375 8.67653 8.6842 8.01598 9.67272C7.35544 10.6612 7.00287 11.8234 7.00287 13.0123C7.00032 13.6961 7.1173 14.375 7.34853 15.0185C7.41429 15.2068 7.40255 15.4136 7.31589 15.5932C7.22922 15.7729 7.07473 15.9108 6.8864 15.9765C6.69806 16.0423 6.49132 16.0305 6.31165 15.9439C6.13197 15.8572 5.99408 15.7027 5.92832 15.5144C5.56421 14.4827 5.4298 13.384 5.53447 12.295C5.63914 11.206 5.98038 10.153 6.53433 9.20953C7.08828 8.26609 7.84159 7.45499 8.7416 6.83291C9.64162 6.21083 10.6666 5.79278 11.745 5.60798C12.8234 5.42317 13.9291 5.47607 14.9849 5.76297C16.0407 6.04987 17.0211 6.56386 17.8577 7.26901C18.6942 7.97416 19.3666 8.85347 19.828 9.84548C20.2893 10.8375 20.5284 11.9183 20.5287 13.0123C20.5304 14.2505 20.2231 15.4695 19.6345 16.5588C19.7732 16.6255 19.9001 16.7143 20.0102 16.8218C20.2833 17.1024 20.4361 17.4785 20.4361 17.87C20.4361 18.2615 20.2833 18.6376 20.0102 18.9182V18.9182ZM26.0592 22.8705L24.8194 21.6232C24.6779 21.4817 24.486 21.4022 24.2858 21.4022C24.0857 21.4022 23.8938 21.4817 23.7523 21.6232C23.6108 21.7647 23.5313 21.9566 23.5313 22.1567C23.5313 22.3568 23.6108 22.5487 23.7523 22.6902L25.0373 23.9375L23.9402 25.0345L20.5287 21.5856L21.5882 20.5262L22.1217 21.0596C22.2632 21.2011 22.4551 21.2806 22.6552 21.2806C22.8553 21.2806 23.0473 21.2011 23.1888 21.0596C23.3302 20.9182 23.4097 20.7263 23.4097 20.5262C23.4097 20.3261 23.3302 20.1342 23.1888 19.9927L22.6552 19.4667C22.5157 19.327 22.3499 19.2161 22.1675 19.1405C21.985 19.0649 21.7895 19.026 21.592 19.026C21.3945 19.026 21.1989 19.0649 21.0164 19.1405C20.834 19.2161 20.6683 19.327 20.5287 19.4667L19.4692 20.5262C19.3294 20.6657 19.2186 20.8315 19.1429 21.0139C19.0673 21.1963 19.0284 21.3919 19.0284 21.5894C19.0284 21.7869 19.0673 21.9824 19.1429 22.1648C19.2186 22.3473 19.3294 22.513 19.4692 22.6526L22.8731 26.0564C23.013 26.197 23.1792 26.3086 23.3624 26.3847C23.5455 26.4607 23.7419 26.4998 23.9402 26.4997V26.4997C24.1435 26.5039 24.3456 26.4667 24.5342 26.3905C24.7228 26.3143 24.8939 26.2006 25.0373 26.0564L26.0592 25.0345C26.199 24.8949 26.3098 24.7292 26.3854 24.5467C26.4611 24.3643 26.5 24.1688 26.5 23.9713C26.5 23.7738 26.4611 23.5782 26.3854 23.3958C26.3098 23.2134 26.199 23.0476 26.0592 22.9081V22.8705ZM13.7658 14.3798C13.7673 14.251 13.8055 14.1252 13.8761 14.0174C13.9467 13.9096 14.0466 13.8242 14.164 13.7712C14.6524 13.5283 15.0519 13.1381 15.3062 12.6557C15.5605 12.1732 15.6567 11.623 15.5811 11.083C15.5055 10.5429 15.2619 10.0403 14.8849 9.6462C14.5079 9.25214 14.0165 8.98662 13.4802 8.88719C13.1061 8.81885 12.7216 8.83365 12.3538 8.93054C11.9861 9.02743 11.6441 9.20403 11.3523 9.44783C11.0604 9.69163 10.8258 9.99665 10.665 10.3413C10.5042 10.6859 10.4212 11.0616 10.4219 11.4419C10.4219 11.6412 10.5011 11.8323 10.642 11.9732C10.7829 12.1141 10.974 12.1933 11.1733 12.1933C11.3726 12.1933 11.5637 12.1141 11.7047 11.9732C11.8456 11.8323 11.9248 11.6412 11.9248 11.4419C11.925 11.2817 11.96 11.1234 12.0275 10.9781C12.095 10.8328 12.1932 10.7039 12.3155 10.6004C12.4387 10.4964 12.5837 10.4215 12.7398 10.3811C12.8959 10.3408 13.0591 10.3361 13.2172 10.3674C13.4327 10.4096 13.6307 10.5151 13.786 10.6703C13.9412 10.8256 14.0467 11.0236 14.0889 11.239C14.1315 11.4735 14.0966 11.7154 13.9895 11.9282C13.8824 12.141 13.7089 12.3132 13.4953 12.4187C13.1268 12.5974 12.8159 12.876 12.5981 13.2227C12.3802 13.5694 12.2641 13.9703 12.2629 14.3798V14.5151C12.2629 14.7144 12.3421 14.9055 12.483 15.0464C12.6239 15.1873 12.815 15.2665 13.0143 15.2665C13.2136 15.2665 13.4048 15.1873 13.5457 15.0464C13.6866 14.9055 13.7658 14.7144 13.7658 14.5151V14.3798ZM12.7288 16.078C12.6355 16.1117 12.5509 16.1655 12.4807 16.2357C12.4106 16.3058 12.3568 16.3905 12.323 16.4837C12.2684 16.6203 12.255 16.7698 12.2845 16.9139C12.3141 17.058 12.3853 17.1902 12.4893 17.2942C12.5933 17.3982 12.7256 17.4694 12.8696 17.499C13.0137 17.5285 13.1633 17.5152 13.2999 17.4605C13.3909 17.4225 13.4748 17.3691 13.5479 17.3027C13.6521 17.1971 13.7228 17.0629 13.7508 16.9171C13.7789 16.7714 13.7632 16.6205 13.7057 16.4837C13.6699 16.3915 13.6163 16.3072 13.5479 16.2357C13.4422 16.1315 13.308 16.0609 13.1622 16.0328C13.0165 16.0047 12.8656 16.0204 12.7288 16.078V16.078Z" fill="url(#paint0_linear_2_362)"/>
<defs>
<linearGradient id="paint0_linear_2_362" x1="26.5" y1="5.5" x2="3.33763" y2="8.24343" gradientUnits="userSpaceOnUse">
<stop stop-color="#D045AE"/>
<stop offset="1" stop-color="#473CC2"/>
</linearGradient>
</defs>
</svg>
