<svg width="32" height="32" viewBox="0 0 32 32" fill="none" xmlns="http://www.w3.org/2000/svg">
<path fill-rule="evenodd" clip-rule="evenodd" d="M5.83331 3.91669H6.33331H25.6667H26.1667V4.41669V7.25002V7.41669V7.75002V21.0834V21.5834H25.6667H19.6866L16.5751 27.0683L15.9994 28.0833L15.4263 27.0668L12.3353 21.5834H6.33331H5.83331V21.0834V7.75002V7.41669V7.25002V4.41669V3.91669ZM25.1667 4.91669V7.25002H6.83331V4.91669H25.1667ZM20.2539 20.5834H25.1667V8.25002H6.83331V20.5834H11.7716L10.7327 18.7403C10.2327 17.8909 9.99933 16.9436 9.99933 15.9635C9.99933 12.7294 12.6994 10.0833 15.9994 10.0833C19.2994 10.0833 21.9994 12.7294 21.9994 15.9635C21.9994 16.9436 21.766 17.8909 21.2994 18.7403L20.2539 20.5834ZM11.5992 18.2411L11.6038 18.2492L16.0021 26.0518L20.426 18.2531C20.8059 17.5594 20.9994 16.7808 20.9994 15.9635C20.9994 13.3006 18.7662 11.0833 15.9994 11.0833C13.2325 11.0833 10.9994 13.3006 10.9994 15.9635C10.9994 16.7822 11.1932 17.5514 11.5945 18.233L11.5992 18.2411ZM15.9994 19.0833C17.6609 19.0833 18.9994 17.7449 18.9994 16.0833C18.9994 14.4218 17.6609 13.0833 15.9994 13.0833C14.3378 13.0833 12.9994 14.4218 12.9994 16.0833C12.9994 17.7449 14.3378 19.0833 15.9994 19.0833ZM8.66665 6.75002C9.03484 6.75002 9.33331 6.45154 9.33331 6.08335C9.33331 5.71516 9.03484 5.41669 8.66665 5.41669C8.29846 5.41669 7.99998 5.71516 7.99998 6.08335C7.99998 6.45154 8.29846 6.75002 8.66665 6.75002ZM11.3333 6.08335C11.3333 6.45154 11.0349 6.75002 10.6667 6.75002C10.2985 6.75002 9.99997 6.45154 9.99997 6.08335C9.99997 5.71516 10.2985 5.41669 10.6667 5.41669C11.0349 5.41669 11.3333 5.71516 11.3333 6.08335ZM12.6667 6.75002C13.0349 6.75002 13.3333 6.45154 13.3333 6.08335C13.3333 5.71516 13.0349 5.41669 12.6667 5.41669C12.2985 5.41669 12 5.71516 12 6.08335C12 6.45154 12.2985 6.75002 12.6667 6.75002Z" fill="url(#paint0_linear_2_404)"/>
<defs>
<linearGradient id="paint0_linear_2_404" x1="26.1667" y1="3.91669" x2="3.6486" y2="6.16074" gradientUnits="userSpaceOnUse">
<stop stop-color="#D045AE"/>
<stop offset="1" stop-color="#473CC2"/>
</linearGradient>
</defs>
</svg>
