<svg width="32" height="32" viewBox="0 0 32 32" fill="none" xmlns="http://www.w3.org/2000/svg">
<path fill-rule="evenodd" clip-rule="evenodd" d="M13.5517 4.88819C13.4694 4.92895 13.3935 4.98327 13.3268 5.05L5.05 13.3268C4.98317 13.3936 4.92878 13.4697 4.88801 13.552L13.7402 13.7406L13.5517 4.88819ZM4.4844 15.1004C4.17697 14.793 4.00551 14.386 4.00013 13.9519L4.00002 13.938L4 13.9308C4 13.4892 4.172 13.0736 4.4844 12.7612L12.7612 4.4844C13.0736 4.172 13.4892 4 13.9308 4C14.3724 4 14.788 4.172 15.1004 4.4844L27.5152 16.8996C27.828 17.212 28 17.6272 28 18.0692C28 18.5108 27.828 18.9264 27.5152 19.2388L19.2388 27.5156C18.9264 27.828 18.5108 28 18.0692 28C17.6272 28 17.212 27.828 16.8996 27.5156L4.4844 15.1004ZM13.7573 14.5413L4.91106 14.3529C4.94853 14.4187 4.99506 14.4799 5.05 14.5348L17.4652 26.95C17.5198 27.0046 17.5813 27.0499 17.6474 27.086L17.459 18.2426L17.3159 18.2395C15.3635 18.1979 13.8019 16.6363 13.7603 14.6839L13.7573 14.5413ZM18.2598 18.2596L18.4482 27.1078C18.5305 27.0688 18.6069 27.0162 18.6732 26.95L26.9496 18.6732C27.0166 18.6063 27.0712 18.5302 27.112 18.4478L18.2598 18.2596ZM27.0887 17.6469C27.0512 17.5812 27.0046 17.5201 26.9496 17.4652L14.5348 5.05C14.4797 4.99501 14.4184 4.94844 14.3525 4.91095L14.5603 14.6667C14.5927 16.1895 15.8103 17.4071 17.3327 17.4395L27.0887 17.6469ZM9.99922 6H5.19922C4.97842 6 4.79922 5.8208 4.79922 5.6C4.79922 5.3792 4.97842 5.2 5.19922 5.2H9.99922C10.22 5.2 10.3992 5.3792 10.3992 5.6C10.3992 5.8208 10.22 6 9.99922 6ZM6.8 23.6H10.8C11.0208 23.6 11.2 23.4208 11.2 23.2C11.2 22.9792 11.0208 22.8 10.8 22.8H6.8C6.5792 22.8 6.4 22.9792 6.4 23.2C6.4 23.4208 6.5792 23.6 6.8 23.6ZM13.6008 26.4H4.80078C4.57998 26.4 4.40078 26.2208 4.40078 26C4.40078 25.7792 4.57998 25.6 4.80078 25.6H13.6008C13.8216 25.6 14.0008 25.7792 14.0008 26C14.0008 26.2208 13.8216 26.4 13.6008 26.4ZM5.19922 9.6H6.39922C6.62002 9.6 6.79922 9.4208 6.79922 9.2C6.79922 8.9792 6.62002 8.8 6.39922 8.8H5.19922C4.97842 8.8 4.79922 8.9792 4.79922 9.2C4.79922 9.4208 4.97842 9.6 5.19922 9.6Z" fill="url(#paint0_linear_2_408)"/>
<defs>
<linearGradient id="paint0_linear_2_408" x1="28" y1="4" x2="1.52872" y2="7.13534" gradientUnits="userSpaceOnUse">
<stop stop-color="#D045AE"/>
<stop offset="1" stop-color="#473CC2"/>
</linearGradient>
</defs>
</svg>
