<svg width="16" height="16" viewBox="0 0 16 16" xmlns="http://www.w3.org/2000/svg"><path fill-rule="evenodd" clip-rule="evenodd" d="M8.00034 0C10.5003 0 12.7314 1.14936 14.1977 2.94589L16 1.14396V6.28548H10.8575L12.5687 4.57358C11.5254 3.18568 9.86636 2.28585 8.00055 2.28585C4.84951 2.28585 2.28674 4.84904 2.28674 7.99987H0.00130367C0.00130367 3.58207 3.58296 0 8.00034 0ZM8.00019 13.7133C11.1498 13.7133 13.7138 11.1507 13.7138 7.99986V7.99965H15.999C15.999 12.4177 12.4176 15.9985 8.00019 15.9985C5.49944 15.9985 3.26877 14.8504 1.80225 13.0545L0.00032711 14.8566V9.71363H5.14308L3.43243 11.4249C4.47537 12.8128 6.13251 13.7133 8.00019 13.7133Z"/></svg>