<svg width="120" height="84" viewBox="0 0 120 84" fill="none" xmlns="http://www.w3.org/2000/svg">
<path d="M79.7681 11.6984C82.2536 11.6984 84.2684 9.68404 84.2684 7.1992C84.2684 4.71437 82.2536 2.70001 79.7681 2.70001C77.2827 2.70001 75.2678 4.71437 75.2678 7.1992C75.2678 9.68404 77.2827 11.6984 79.7681 11.6984Z" fill="url(#paint0_linear_17_4)" fill-opacity="0.12"/>
<path d="M107.89 41.0439C110.465 50.1542 105.405 64.0099 93.7844 60.3837C90.4707 59.354 87.6496 57.2052 84.9628 55.0339C81.5596 52.2807 77.8205 49.0126 73.365 48.2292C67.4989 47.1995 61.3417 48.8783 56.1473 51.5644C45.6017 57.0485 32.7948 74.6871 19.1819 67.0541C9.64386 61.7267 9.24085 45.9684 17.8833 39.7904C20.279 38.0668 22.9881 36.7909 25.2943 34.9554C29.7274 31.4411 32.0112 26.2928 32.5485 20.7416C32.7948 18.1226 32.75 15.4142 33.7128 12.9519C35.0114 9.70622 38.146 7.26636 41.594 6.84107C49.2289 5.87855 54.8711 11.4969 60.2894 15.9514C66.4466 21.0102 73.365 23.7858 81.2238 25.1064C90.6274 26.6733 100.457 27.7254 105.964 36.5671C106.793 37.9549 107.442 39.4546 107.89 41.0439Z" fill="url(#paint1_linear_17_4)" fill-opacity="0.12"/>
<path d="M15.4207 30.0981C15.5102 34.754 21.0629 35.1345 23.884 32.5603C25.5408 31.0382 26.3916 28.8222 26.6827 26.6062C26.9961 24.2335 27.3096 20.2044 25.6304 18.2122C21.3539 13.1981 15.3535 27.0091 15.4207 30.0981Z" fill="url(#paint2_linear_17_4)" fill-opacity="0.12"/>
<path d="M95.4635 70.9265C102.763 67.6809 96.9636 58.7944 90.4706 61.0328C82.7013 63.7189 87.6943 74.3961 95.4635 70.9265Z" fill="url(#paint3_linear_17_4)" fill-opacity="0.12"/>
<path d="M82.9479 15.9513V79.634C82.9479 80.5069 82.2538 81.2008 81.3806 81.2008H34.7652C33.9144 81.2008 33.1979 80.5069 33.1979 79.634V15.9513C33.1979 15.1008 33.892 14.3845 34.7652 14.3845H81.3806C82.2538 14.3845 82.9479 15.0784 82.9479 15.9513Z" fill="url(#paint4_linear_17_4)"/>
<path opacity="0.2" d="M82.9474 32.0007V79.6563C82.9474 80.5293 82.2534 81.2232 81.3802 81.2232H34.7648C33.914 81.2232 33.1975 80.5293 33.1975 79.6563V58.1453L82.9474 32.0007Z" fill="url(#paint5_linear_17_4)" fill-opacity="0.12"/>
<path d="M71.506 76.1421H37.2721V19.0404H78.8722V68.4644L71.506 76.1421Z" fill="#F5F5FD"/>
<path opacity="0.2" d="M71.5061 76.142V68.4643H78.8723L71.5061 76.142Z" fill="#583DBF"/>
<path fill-rule="evenodd" clip-rule="evenodd" d="M48.7355 32.8513C48.7355 32.307 49.1767 31.8658 49.721 31.8658H62.4608C63.0051 31.8658 63.4463 32.307 63.4463 32.8513C63.4463 33.3956 63.0051 33.8369 62.4608 33.8369H49.721C49.1767 33.8369 48.7355 33.3956 48.7355 32.8513Z" fill="#747474" fill-opacity="0.32"/>
<path fill-rule="evenodd" clip-rule="evenodd" d="M48.7349 36.7014C48.7349 36.1571 49.1761 35.7159 49.7204 35.7159H54.2655C54.8098 35.7159 55.2511 36.1571 55.2511 36.7014C55.2511 37.2457 54.8098 37.687 54.2655 37.687H49.7204C49.1761 37.687 48.7349 37.2457 48.7349 36.7014Z" fill="#747474" fill-opacity="0.32"/>
<path fill-rule="evenodd" clip-rule="evenodd" d="M55.6753 36.7014C55.6753 36.1571 56.1165 35.7159 56.6608 35.7159H67.4974C68.0417 35.7159 68.483 36.1571 68.483 36.7014C68.483 37.2457 68.0417 37.687 67.4974 37.687H56.6608C56.1165 37.687 55.6753 37.2457 55.6753 36.7014Z" fill="#747474" fill-opacity="0.32"/>
<path fill-rule="evenodd" clip-rule="evenodd" d="M50.5929 34.7764C50.5929 34.2321 51.0341 33.7908 51.5784 33.7908H72.1098C72.6541 33.7908 73.0953 34.2321 73.0953 34.7764C73.0953 35.3207 72.6541 35.7619 72.1098 35.7619H51.5784C51.0341 35.7619 50.5929 35.3207 50.5929 34.7764Z" fill="#747474" fill-opacity="0.32"/>
<path fill-rule="evenodd" clip-rule="evenodd" d="M65.3485 32.8513C65.3485 32.307 65.7898 31.8658 66.3341 31.8658H75.4467C75.991 31.8658 76.4322 32.307 76.4322 32.8513C76.4322 33.3956 75.991 33.8369 75.4467 33.8369H66.3341C65.7898 33.8369 65.3485 33.3956 65.3485 32.8513Z" fill="#747474" fill-opacity="0.32"/>
<path d="M44.9442 32.8513H44.0856C42.9811 32.8513 42.0856 33.7468 42.0856 34.8513V35.7087C42.0856 36.8132 42.9811 37.7087 44.0856 37.7087H44.9442C46.0488 37.7087 46.9442 36.8132 46.9442 35.7087V34.8513C46.9442 33.7468 46.0488 32.8513 44.9442 32.8513Z" fill="url(#paint6_linear_17_4)" fill-opacity="0.12"/>
<path fill-rule="evenodd" clip-rule="evenodd" d="M48.1589 34.9079L44.0993 38.2604L42.0382 36.1157L44.2013 34.037L44.3344 34.1755L46.2486 32.5947L48.1589 34.9079Z" fill="url(#paint7_linear_17_4)"/>
<path fill-rule="evenodd" clip-rule="evenodd" d="M48.7357 40.7977C48.7357 40.2534 49.1769 39.8121 49.7212 39.8121H53.8633C54.4076 39.8121 54.8489 40.2534 54.8489 40.7977C54.8489 41.342 54.4076 41.7832 53.8633 41.7832H49.7212C49.1769 41.7832 48.7357 41.342 48.7357 40.7977Z" fill="#747474" fill-opacity="0.32"/>
<path fill-rule="evenodd" clip-rule="evenodd" d="M48.7351 44.6477C48.7351 44.1034 49.1763 43.6622 49.7206 43.6622H52.6537C53.198 43.6622 53.6392 44.1034 53.6392 44.6477C53.6392 45.192 53.198 45.6333 52.6537 45.6333H49.7206C49.1763 45.6333 48.7351 45.192 48.7351 44.6477Z" fill="#747474" fill-opacity="0.32"/>
<path fill-rule="evenodd" clip-rule="evenodd" d="M55.6754 44.6477C55.6754 44.1034 56.1167 43.6622 56.661 43.6622H69.8261C70.3705 43.6622 70.8117 44.1034 70.8117 44.6477C70.8117 45.192 70.3705 45.6333 69.8261 45.6333H56.661C56.1167 45.6333 55.6754 45.192 55.6754 44.6477Z" fill="#747474" fill-opacity="0.32"/>
<path fill-rule="evenodd" clip-rule="evenodd" d="M50.5931 42.7227C50.5931 42.1784 51.0343 41.7372 51.5786 41.7372H59.2807C59.825 41.7372 60.2662 42.1784 60.2662 42.7227C60.2662 43.267 59.825 43.7083 59.2807 43.7083H51.5786C51.0343 43.7083 50.5931 43.267 50.5931 42.7227Z" fill="#747474" fill-opacity="0.32"/>
<path fill-rule="evenodd" clip-rule="evenodd" d="M60.3325 42.7227C60.3325 42.1784 60.7737 41.7372 61.318 41.7372H74.7743C75.3186 41.7372 75.7598 42.1784 75.7598 42.7227C75.7598 43.267 75.3186 43.7083 74.7743 43.7083H61.318C60.7737 43.7083 60.3325 43.267 60.3325 42.7227Z" fill="#747474" fill-opacity="0.32"/>
<path fill-rule="evenodd" clip-rule="evenodd" d="M55.6754 40.7977C55.6754 40.2534 56.1167 39.8121 56.661 39.8121H64.5422C65.0865 39.8121 65.5277 40.2534 65.5277 40.7977C65.5277 41.342 65.0865 41.7832 64.5422 41.7832H56.661C56.1167 41.7832 55.6754 41.342 55.6754 40.7977Z" fill="#747474" fill-opacity="0.32"/>
<path d="M44.9444 40.35H44.0858C42.9813 40.35 42.0858 41.2454 42.0858 42.35V43.2073C42.0858 44.3119 42.9813 45.2073 44.0858 45.2073H44.9444C46.049 45.2073 46.9444 44.3119 46.9444 43.2073V42.35C46.9444 41.2454 46.0489 40.35 44.9444 40.35Z" fill="url(#paint8_linear_17_4)" fill-opacity="0.12"/>
<path fill-rule="evenodd" clip-rule="evenodd" d="M48.1591 42.5408L44.0995 45.8933L42.0384 43.7486L44.2015 41.6699L44.3346 41.8084L46.2488 40.2276L48.1591 42.5408Z" fill="url(#paint9_linear_17_4)"/>
<path fill-rule="evenodd" clip-rule="evenodd" d="M48.7357 48.744C48.7357 48.1997 49.1769 47.7584 49.7212 47.7584H56.662C57.2063 47.7584 57.6476 48.1997 57.6476 48.744C57.6476 49.2883 57.2063 49.7295 56.662 49.7295H49.7212C49.1769 49.7295 48.7357 49.2883 48.7357 48.744Z" fill="#747474" fill-opacity="0.32"/>
<path fill-rule="evenodd" clip-rule="evenodd" d="M48.7351 52.6164C48.7351 52.0721 49.1763 51.6308 49.7206 51.6308H62.7738C63.3181 51.6308 63.7594 52.0721 63.7594 52.6164C63.7594 53.1607 63.3181 53.6019 62.7738 53.6019H49.7206C49.1763 53.6019 48.7351 53.1607 48.7351 52.6164Z" fill="#747474" fill-opacity="0.32"/>
<path fill-rule="evenodd" clip-rule="evenodd" d="M65.2585 52.6164C65.2585 52.0721 65.6997 51.6308 66.244 51.6308H73.2296C73.7739 51.6308 74.2151 52.0721 74.2151 52.6164C74.2151 53.1607 73.7739 53.6019 73.2296 53.6019H66.244C65.6997 53.6019 65.2585 53.1607 65.2585 52.6164Z" fill="#747474" fill-opacity="0.32"/>
<path fill-rule="evenodd" clip-rule="evenodd" d="M50.5931 50.669C50.5931 50.1247 51.0343 49.6835 51.5786 49.6835H60.3554C60.8997 49.6835 61.3409 50.1247 61.3409 50.669C61.3409 51.2133 60.8997 51.6546 60.3554 51.6546H51.5786C51.0343 51.6546 50.5931 51.2133 50.5931 50.669Z" fill="#747474" fill-opacity="0.32"/>
<path fill-rule="evenodd" clip-rule="evenodd" d="M63.5569 50.669C63.5569 50.1247 63.9981 49.6835 64.5424 49.6835H71.931C72.4753 49.6835 72.9166 50.1247 72.9166 50.669C72.9166 51.2133 72.4753 51.6546 71.931 51.6546H64.5424C63.9981 51.6546 63.5569 51.2133 63.5569 50.669Z" fill="#747474" fill-opacity="0.32"/>
<path fill-rule="evenodd" clip-rule="evenodd" d="M58.2958 48.744C58.2958 48.1997 58.737 47.7584 59.2814 47.7584H75.4467C75.991 47.7584 76.4323 48.1997 76.4323 48.744C76.4323 49.2883 75.991 49.7295 75.4467 49.7295H59.2814C58.737 49.7295 58.2958 49.2883 58.2958 48.744Z" fill="#747474" fill-opacity="0.32"/>
<path d="M44.9444 47.8486H44.0858C42.9813 47.8486 42.0858 48.7441 42.0858 49.8486V50.706C42.0858 51.8105 42.9813 52.706 44.0858 52.706H44.9444C46.049 52.706 46.9444 51.8105 46.9444 50.706V49.8486C46.9444 48.7441 46.0489 47.8486 44.9444 47.8486Z" fill="url(#paint10_linear_17_4)" fill-opacity="0.12"/>
<path fill-rule="evenodd" clip-rule="evenodd" d="M48.1642 49.901L44.1038 53.2845L42.0384 51.1354L44.2015 49.0567L44.3303 49.1907L46.2437 47.5963L48.1642 49.901Z" fill="url(#paint11_linear_17_4)"/>
<path fill-rule="evenodd" clip-rule="evenodd" d="M48.7359 56.6903C48.7359 56.146 49.1772 55.7048 49.7215 55.7048H62.4612C63.0055 55.7048 63.4468 56.146 63.4468 56.6903C63.4468 57.2346 63.0055 57.6759 62.4612 57.6759H49.7215C49.1772 57.6759 48.7359 57.2346 48.7359 56.6903Z" fill="#747474" fill-opacity="0.32"/>
<path fill-rule="evenodd" clip-rule="evenodd" d="M48.7353 60.5628C48.7353 60.0185 49.1765 59.5772 49.7208 59.5772H54.266C54.8103 59.5772 55.2515 60.0185 55.2515 60.5628C55.2515 61.1071 54.8103 61.5483 54.266 61.5483H49.7208C49.1765 61.5483 48.7353 61.1071 48.7353 60.5628Z" fill="#747474" fill-opacity="0.32"/>
<path fill-rule="evenodd" clip-rule="evenodd" d="M55.6757 60.5628C55.6757 60.0185 56.1169 59.5772 56.6612 59.5772H67.4979C68.0422 59.5772 68.4834 60.0185 68.4834 60.5628C68.4834 61.1071 68.0422 61.5483 67.4979 61.5483H56.6612C56.1169 61.5483 55.6757 61.1071 55.6757 60.5628Z" fill="#747474" fill-opacity="0.32"/>
<path fill-rule="evenodd" clip-rule="evenodd" d="M50.5933 58.6377C50.5933 58.0934 51.0346 57.6522 51.5789 57.6522H72.1102C72.6545 57.6522 73.0958 58.0934 73.0958 58.6377C73.0958 59.182 72.6545 59.6233 72.1102 59.6233H51.5789C51.0346 59.6233 50.5933 59.182 50.5933 58.6377Z" fill="#747474" fill-opacity="0.32"/>
<path fill-rule="evenodd" clip-rule="evenodd" d="M65.3489 56.6903C65.3489 56.146 65.7902 55.7048 66.3345 55.7048H75.4471C75.9914 55.7048 76.4326 56.146 76.4326 56.6903C76.4326 57.2346 75.9914 57.6759 75.4471 57.6759H66.3345C65.7902 57.6759 65.3489 57.2346 65.3489 56.6903Z" fill="#747474" fill-opacity="0.32"/>
<path d="M44.9446 55.3697H44.0861C42.9815 55.3697 42.0861 56.2651 42.0861 57.3697V58.227C42.0861 59.3316 42.9815 60.227 44.0861 60.227H44.9446C46.0492 60.227 46.9446 59.3316 46.9446 58.227V57.3697C46.9446 56.2651 46.0492 55.3697 44.9446 55.3697Z" fill="url(#paint12_linear_17_4)" fill-opacity="0.12"/>
<path fill-rule="evenodd" clip-rule="evenodd" d="M48.1593 57.2919L44.0997 60.6444L42.0387 58.4998L44.2017 56.421L44.3348 56.5595L46.249 54.9787L48.1593 57.2919Z" fill="url(#paint13_linear_17_4)"/>
<path d="M71.5511 12.258H65.5731C64.5655 12.258 63.7595 11.3626 63.9386 10.3554C64.0058 9.95245 64.0282 9.54954 64.0282 9.14663C63.9386 6.01286 61.319 3.4387 58.1621 3.41631C54.8484 3.37155 52.1616 6.05763 52.1616 9.34808C52.1616 9.63908 52.184 9.93007 52.2288 10.1987C52.3855 11.2955 51.5347 12.258 50.4152 12.258H44.6387C43.7431 12.2804 43.0266 12.9967 43.0266 13.892V18.8613C43.0266 19.4881 43.3849 20.0477 43.9222 20.3163C44.1461 20.4282 44.37 20.4953 44.6387 20.4953H71.5735C72.4691 20.4729 73.1856 19.7567 73.1856 18.8613V13.892C73.1632 12.9967 72.4467 12.2804 71.5511 12.258ZM58.0725 6.1024C59.8637 6.1024 61.2966 7.55736 61.2966 9.3257C61.2966 11.1164 59.8413 12.549 58.0725 12.549C56.2813 12.549 54.8484 11.094 54.8484 9.3257C54.8484 7.55736 56.3037 6.1024 58.0725 6.1024Z" fill="url(#paint14_linear_17_4)"/>
<path opacity="0.2" d="M73.1636 13.8921V18.8613C73.1636 19.7567 72.4471 20.473 71.5516 20.4954H44.6167C44.3481 20.4954 44.1242 20.4282 43.9003 20.3163L67.0512 12.2357H71.5292C72.4471 12.2804 73.1636 12.9967 73.1636 13.8921Z" fill="url(#paint15_linear_17_4)" fill-opacity="0.12"/>
<path opacity="0.2" fill-rule="evenodd" clip-rule="evenodd" d="M43.952 13.8473C43.952 13.295 44.3998 12.8473 44.952 12.8473H71.2152C71.7675 12.8473 72.2152 13.295 72.2152 13.8473C72.2152 14.3995 71.7675 14.8473 71.2152 14.8473H44.952C44.3998 14.8473 43.952 14.3995 43.952 13.8473Z" fill="white"/>
<path opacity="0.2" fill-rule="evenodd" clip-rule="evenodd" d="M43.952 15.4142C43.952 14.8619 44.3998 14.4142 44.952 14.4142H71.2152C71.7675 14.4142 72.2152 14.8619 72.2152 15.4142C72.2152 15.9665 71.7675 16.4142 71.2152 16.4142H44.952C44.3998 16.4142 43.952 15.9665 43.952 15.4142Z" fill="white"/>
<path opacity="0.2" fill-rule="evenodd" clip-rule="evenodd" d="M43.952 16.981C43.952 16.4288 44.3998 15.981 44.952 15.981H71.2152C71.7675 15.981 72.2152 16.4288 72.2152 16.981C72.2152 17.5333 71.7675 17.981 71.2152 17.981H44.952C44.3998 17.981 43.952 17.5333 43.952 16.981Z" fill="white"/>
<path d="M86.2168 24.0096L85.5228 26.8747C85.5228 26.8747 89.1723 29.3146 91.1426 25.4422L88.926 22.6218L86.2168 24.0096Z" fill="#FFC6C2"/>
<path d="M84.8056 47.3562L81.9621 62.4654L94.4108 74.5752L96.2691 72.2472L88.7014 61.3238L90.7836 45.5878L84.8056 47.3562Z" fill="#60AFE8"/>
<path d="M89.7537 45.946L96.5154 43.5733L90.3806 75.6944L87.0222 75.2243L89.7537 45.946Z" fill="#60AFE8"/>
<path d="M90.5148 47.6695L88.7013 61.3238L87.0444 60.0031L90.5148 47.6695Z" fill="#2F82BD"/>
<path d="M87.6943 68.039L90.5378 74.8661L91.1647 71.5981L87.6943 68.039Z" fill="#29A0C1"/>
<path d="M85.5899 25.5094C85.5899 25.5094 88.4781 29.3146 91.0306 24.9721L96.516 27.121L98.6207 32.9409L95.419 35.0002L94.389 31.7769L93.8293 37.1491L97.0086 44.7372L84.8286 47.3562L81.6045 32.5603L80.082 33.2542L78.246 29.7847L82.5225 26.4495L85.5899 25.5094Z" fill="#585AFA"/>
<path d="M80.0593 33.2542L78.2233 29.7847L76.8352 31.1054L77.6188 25.6437L80.2384 21.7712L77.7755 19.9134L76.3202 21.1445L75.8948 20.182L75.2455 20.5849L76.4769 22.5099L73.5439 31.5754L74.2156 35.4255L80.0593 33.2542Z" fill="#FFC6C2"/>
<path d="M81.8504 47.0204L79.1413 50.1318H82.9923L81.8504 47.0204Z" fill="#F5F5FD"/>
<path d="M85.9704 25.0616L88.3437 25.5765L89.1945 22.9799L88.9258 22.6218L86.2167 24.0096L85.9704 25.0616Z" fill="#E4918B"/>
<path d="M84.4923 21.3459L86.0372 24.4125L88.1195 24.5692L89.3509 22.7561L87.6717 18.5255L83.9326 19.9804L84.4923 21.3459Z" fill="#FFC6C2"/>
<path d="M85.3435 21.9055C85.4107 22.1518 85.2763 22.4204 85.03 22.4875C84.7837 22.5547 84.5151 22.4204 84.4479 22.1741C84.3807 21.9279 84.5151 21.6593 84.7614 21.5922C85.0076 21.5026 85.2763 21.6369 85.3435 21.9055Z" fill="#FFC6C2"/>
<path d="M88.366 21.0102C88.6256 21.0102 88.8362 20.7997 88.8362 20.5401C88.8362 20.2805 88.6256 20.07 88.366 20.07C88.1063 20.07 87.8958 20.2805 87.8958 20.5401C87.8958 20.7997 88.1063 21.0102 88.366 21.0102Z" fill="#FFC6C2"/>
<path d="M87.9177 22.9575L87.134 23.3157C86.8878 23.4276 86.5967 23.3157 86.4847 23.0695L86.3056 22.6665L88.0073 21.9055L88.1864 22.3084C88.2759 22.5546 88.164 22.8456 87.9177 22.9575Z" fill="white"/>
<path d="M86.3734 20.2043L86.2839 22.1517L87.3586 21.8607L86.3734 20.2043Z" fill="#E4918B"/>
<path d="M88.366 20.5401C88.366 20.5401 88.8586 20.07 88.0525 18.145C88.0525 18.145 87.7839 17.7197 87.3361 17.7868C87.3361 17.7868 86.4405 16.2423 83.9776 17.4063C83.9776 17.4063 80.6416 18.906 84.5598 21.5697C84.5598 21.5697 85.433 21.8607 86.0151 20.0253C86.1718 19.5104 86.6196 19.1075 87.1794 19.018C87.4928 18.9732 87.8063 19.018 87.9182 19.3313L88.366 20.5401Z" fill="url(#paint16_linear_17_4)"/>
<path d="M94.3885 31.7769L91.7689 37.44L94.7019 45.4759L96.9857 44.7372L93.8064 37.149L94.3885 31.7769Z" fill="#3739C2"/>
<path d="M81.8508 47.0204L104.106 37.8206L105.494 41.1782L82.9927 50.1318L81.8508 47.0204Z" fill="url(#paint17_linear_17_4)"/>
<path d="M104.106 37.8206L104.778 37.552C105.696 37.1715 106.748 37.6191 107.128 38.5369C107.509 39.4546 107.061 40.5067 106.143 40.8872L105.472 41.1558L104.106 37.8206Z" fill="#F5F5FD"/>
<path d="M81.582 32.5603L82.1641 28.7326L80.0595 33.2542L81.582 32.5603Z" fill="#3739C2"/>
<path d="M77.6187 25.6436L76.0066 30.9934L76.835 31.1053L77.6187 25.6436Z" fill="#E4918B"/>
<g style="mix-blend-mode:overlay" opacity="0.4">
<path d="M105.494 41.1782L82.9921 50.1318L82.6786 49.2812L105.203 40.4843L105.494 41.1782Z" fill="#131313"/>
</g>
<path d="M94.7019 45.4759L96.9856 39.1636L95.4183 35.0002L98.6201 32.9408L100.837 38.8055L97.7021 44.8491L95.7542 47.4905L93.4257 47.6695L92.1942 46.4608L94.7019 45.4759Z" fill="#FFC6C2"/>
<path d="M94.7019 45.4759L93.4257 47.6696L92.1942 46.4608L94.7019 45.4759Z" fill="#61AFE8"/>
<path d="M94.7694 74.1051L95.2396 77.5299L94.2545 80.0817L95.5307 81.2009L99.0906 73.9932L96.0456 72.5159L94.7694 74.1051Z" fill="#3739C2"/>
<path d="M87.5824 75.3139L87.2465 76.4555L86.5077 78.179L87.2465 81.0666H89.0601L90.3139 78.9177L89.4183 76.7912L89.5079 75.5825L87.5824 75.3139Z" fill="#3739C2"/>
<path d="M95.4635 73.2321L96.2695 76.6793L94.5679 80.3502L94.2545 80.0816L95.15 76.8583L94.7694 74.1051L95.4635 73.2321Z" fill="#585AFA"/>
<path d="M87.9629 75.3586L87.3808 77.9328L87.6718 79.634H88.657L89.1272 77.888L88.7913 75.4705L87.9629 75.3586Z" fill="#585AFA"/>
<path d="M18.9134 48.632C19.6299 47.759 20.5031 46.998 21.018 45.9907C22.1375 43.8195 21.3539 41.2229 20.6598 38.895C19.9657 36.567 19.4507 33.8138 20.9509 31.8888C21.8241 30.7696 23.257 30.1652 24.1078 29.0236C24.9586 27.882 25.4288 26.0913 26.8617 25.957C27.4439 25.9122 28.0036 26.1808 28.429 26.5837C29.9291 27.9492 29.9067 30.2995 29.4142 32.2469C28.944 34.2167 28.1156 36.1641 28.4066 38.1787C28.7425 40.529 30.556 42.3421 32.0114 44.2224C33.4667 46.1026 34.6981 48.6096 33.713 50.7809C33.0413 52.2806 31.4516 53.1984 30.7575 54.6757C29.6381 57.0484 30.3545 59.9584 27.3095 61.0104C25.6527 61.57 23.257 61.4581 21.7345 60.5851C17.3461 58.0781 15.5997 52.6835 18.9134 48.632Z" fill="#60AFE8"/>
<path d="M17.4134 64.1218C16.4283 61.7267 17.5701 58.7048 16.1596 56.5336C17.8388 56.8917 19.518 57.2723 21.0853 57.9886C22.6526 58.7048 24.0855 59.7569 25.0259 61.1895C25.6976 62.1968 26.1006 63.4279 26.0111 64.6366C25.608 70.4117 18.8911 67.7928 17.4134 64.1218Z" fill="#585AFA"/>
<path d="M28.049 61.9505C29.4595 61.4805 31.1163 62.2191 32.4149 61.5029C32.1687 62.443 31.8776 63.3831 31.4074 64.2561C30.9372 65.1291 30.2879 65.9125 29.4371 66.3826C28.8326 66.7183 28.1385 66.9198 27.4444 66.8303C24.1755 66.4273 25.8995 62.6892 28.049 61.9505Z" fill="#3739C2"/>
<path fill-rule="evenodd" clip-rule="evenodd" d="M25.6307 31.5585C25.8378 31.5585 26.0057 31.7264 26.0057 31.9335V67.1884C26.0057 67.3955 25.8378 67.5634 25.6307 67.5634C25.4236 67.5634 25.2557 67.3955 25.2557 67.1884V31.9335C25.2557 31.7264 25.4236 31.5585 25.6307 31.5585Z" fill="#2F82BD"/>
<path fill-rule="evenodd" clip-rule="evenodd" d="M22.3015 34.9797C22.4611 34.8478 22.6975 34.8702 22.8295 35.0299L25.9192 38.768C26.0512 38.9276 26.0287 39.164 25.8691 39.2959C25.7095 39.4279 25.4731 39.4054 25.3411 39.2458L22.2514 35.5077C22.1194 35.348 22.1419 35.1117 22.3015 34.9797Z" fill="#2F82BD"/>
<path fill-rule="evenodd" clip-rule="evenodd" d="M28.9195 45.2341C29.0653 45.3811 29.0644 45.6186 28.9174 45.7645L25.8948 48.7639C25.7478 48.9098 25.5104 48.9089 25.3645 48.7619C25.2186 48.6149 25.2195 48.3774 25.3665 48.2316L28.3891 45.2321C28.5361 45.0862 28.7736 45.0871 28.9195 45.2341Z" fill="#2F82BD"/>
<path fill-rule="evenodd" clip-rule="evenodd" d="M21.605 52.5832C21.7222 52.4125 21.9556 52.3691 22.1264 52.4863L25.8431 55.0381C26.0138 55.1553 26.0572 55.3887 25.9399 55.5595C25.8227 55.7302 25.5893 55.7736 25.4185 55.6564L21.7019 53.1046C21.5311 52.9874 21.4877 52.7539 21.605 52.5832Z" fill="#2F82BD"/>
<path d="M30.253 77.6369C30.0305 79.6651 28.3172 81.2008 26.2768 81.2008H23.3272C21.2869 81.2008 19.5735 79.6651 19.3511 77.6369L18.5493 70.3262C18.2896 67.9586 20.1437 65.8901 22.5254 65.8901H27.0787C29.4604 65.8901 31.3145 67.9586 31.0548 70.3262L30.253 77.6369Z" fill="url(#paint18_linear_17_4)"/>
<defs>
<linearGradient id="paint0_linear_17_4" x1="75.2678" y1="11.6984" x2="85.1952" y2="10.5223" gradientUnits="userSpaceOnUse">
<stop stop-color="#473CC2"/>
<stop offset="1" stop-color="#D045AE"/>
</linearGradient>
<linearGradient id="paint1_linear_17_4" x1="11.7" y1="68.9404" x2="116.455" y2="49.6241" gradientUnits="userSpaceOnUse">
<stop stop-color="#473CC2"/>
<stop offset="1" stop-color="#D045AE"/>
</linearGradient>
<linearGradient id="paint2_linear_17_4" x1="15.4201" y1="34.1466" x2="28.2126" y2="33.1218" gradientUnits="userSpaceOnUse">
<stop stop-color="#473CC2"/>
<stop offset="1" stop-color="#D045AE"/>
</linearGradient>
<linearGradient id="paint3_linear_17_4" x1="86.5746" y1="71.6129" x2="100.072" y2="69.8177" gradientUnits="userSpaceOnUse">
<stop stop-color="#473CC2"/>
<stop offset="1" stop-color="#D045AE"/>
</linearGradient>
<linearGradient id="paint4_linear_17_4" x1="82.9479" y1="14.3845" x2="27.7348" y2="19.2537" gradientUnits="userSpaceOnUse">
<stop stop-color="#D045AE"/>
<stop offset="1" stop-color="#473CC2"/>
</linearGradient>
<linearGradient id="paint5_linear_17_4" x1="33.1975" y1="81.2232" x2="88.0538" y2="74.6562" gradientUnits="userSpaceOnUse">
<stop stop-color="#473CC2"/>
<stop offset="1" stop-color="#D045AE"/>
</linearGradient>
<linearGradient id="paint6_linear_17_4" x1="42.0856" y1="37.7087" x2="47.4444" y2="37.0738" gradientUnits="userSpaceOnUse">
<stop stop-color="#473CC2"/>
<stop offset="1" stop-color="#D045AE"/>
</linearGradient>
<linearGradient id="paint7_linear_17_4" x1="47.2037" y1="33.7513" x2="42.8052" y2="34.6139" gradientUnits="userSpaceOnUse">
<stop stop-color="#D045AE"/>
<stop offset="1" stop-color="#473CC2"/>
</linearGradient>
<linearGradient id="paint8_linear_17_4" x1="42.0858" y1="45.2073" x2="47.4446" y2="44.5724" gradientUnits="userSpaceOnUse">
<stop stop-color="#473CC2"/>
<stop offset="1" stop-color="#D045AE"/>
</linearGradient>
<linearGradient id="paint9_linear_17_4" x1="47.2039" y1="41.3842" x2="42.8054" y2="42.2468" gradientUnits="userSpaceOnUse">
<stop stop-color="#D045AE"/>
<stop offset="1" stop-color="#473CC2"/>
</linearGradient>
<linearGradient id="paint10_linear_17_4" x1="42.0858" y1="52.706" x2="47.4446" y2="52.0711" gradientUnits="userSpaceOnUse">
<stop stop-color="#473CC2"/>
<stop offset="1" stop-color="#D045AE"/>
</linearGradient>
<linearGradient id="paint11_linear_17_4" x1="47.2039" y1="48.7486" x2="42.8025" y2="49.604" gradientUnits="userSpaceOnUse">
<stop stop-color="#D045AE"/>
<stop offset="1" stop-color="#473CC2"/>
</linearGradient>
<linearGradient id="paint12_linear_17_4" x1="42.0861" y1="60.227" x2="47.4449" y2="59.5921" gradientUnits="userSpaceOnUse">
<stop stop-color="#473CC2"/>
<stop offset="1" stop-color="#D045AE"/>
</linearGradient>
<linearGradient id="paint13_linear_17_4" x1="47.2042" y1="56.1353" x2="42.8056" y2="56.9979" gradientUnits="userSpaceOnUse">
<stop stop-color="#D045AE"/>
<stop offset="1" stop-color="#473CC2"/>
</linearGradient>
<linearGradient id="paint14_linear_17_4" x1="73.1856" y1="3.41576" x2="40.8681" y2="10.1748" gradientUnits="userSpaceOnUse">
<stop stop-color="#F281D7"/>
<stop offset="1" stop-color="#3C348F"/>
</linearGradient>
<linearGradient id="paint15_linear_17_4" x1="43.9003" y1="20.4954" x2="71.7292" y2="8.81743" gradientUnits="userSpaceOnUse">
<stop stop-color="#473CC2"/>
<stop offset="1" stop-color="#D045AE"/>
</linearGradient>
<linearGradient id="paint16_linear_17_4" x1="88.515" y1="16.9721" x2="82.1043" y2="17.9366" gradientUnits="userSpaceOnUse">
<stop stop-color="#D045AE"/>
<stop offset="1" stop-color="#473CC2"/>
</linearGradient>
<linearGradient id="paint17_linear_17_4" x1="81.8508" y1="50.1318" x2="101.787" y2="33.4025" gradientUnits="userSpaceOnUse">
<stop stop-color="#D9AC4D"/>
<stop offset="1" stop-color="#F1691C"/>
</linearGradient>
<linearGradient id="paint18_linear_17_4" x1="31.5417" y1="65.8901" x2="16.6287" y2="67.4451" gradientUnits="userSpaceOnUse">
<stop stop-color="#D045AE"/>
<stop offset="1" stop-color="#473CC2"/>
</linearGradient>
</defs>
</svg>
