<svg width="120" height="84" viewBox="0 0 120 84" fill="none" xmlns="http://www.w3.org/2000/svg">
<path d="M38.6785 16.4984C36.193 16.4984 34.1781 14.484 34.1781 11.9992C34.1781 9.51436 36.193 7.5 38.6785 7.5C41.1639 7.5 43.1788 9.51436 43.1788 11.9992C43.1788 14.484 41.1639 16.4984 38.6785 16.4984Z" fill="url(#paint0_linear_18_140)" fill-opacity="0.12"/>
<path d="M10.5566 45.8438C7.98182 54.9541 13.0419 68.8099 24.6622 65.1837C27.9758 64.154 30.7969 62.0051 33.4837 59.8339C36.8869 57.0806 40.626 53.8126 45.0816 53.0291C50.9477 51.9995 57.1048 53.6783 62.2993 56.3643C72.8448 61.8484 85.6517 79.4871 99.2647 71.8541C108.803 66.5267 109.206 50.7683 100.563 44.5903C98.1676 42.8668 95.4584 41.5909 93.1523 39.7554C88.7191 36.2411 86.4354 31.0928 85.898 25.5415C85.6517 22.9226 85.6965 20.2141 84.7338 17.7519C83.4351 14.5062 80.3006 12.0663 76.8526 11.641C69.2177 10.6785 63.5755 16.2969 58.1572 20.7513C52 25.8101 45.0816 28.5857 37.2228 29.9064C27.8191 31.4733 17.99 32.5253 12.4822 41.367C11.6537 42.7548 11.0044 44.2546 10.5566 45.8438Z" fill="url(#paint1_linear_18_140)" fill-opacity="0.12"/>
<path d="M103.026 34.8981C102.936 39.5539 97.3837 39.9345 94.5626 37.3603C92.9057 35.8382 92.0549 33.6222 91.7639 31.4061C91.4504 29.0334 91.137 25.0043 92.8162 23.0121C97.0926 17.9981 103.093 31.8091 103.026 34.8981Z" fill="url(#paint2_linear_18_140)" fill-opacity="0.12"/>
<path d="M50.7929 68.1509C43.4939 64.9052 49.2928 56.0188 55.7858 58.2572C63.555 60.9432 58.5621 71.6204 50.7929 68.1509Z" fill="url(#paint3_linear_18_140)" fill-opacity="0.12"/>
<g clip-path="url(#clip0_18_140)">
<path opacity="0.2" d="M62.0248 83.9999C76.3886 83.9999 88.0327 83.5398 88.0327 82.9723C88.0327 82.4047 76.3886 81.9446 62.0248 81.9446C47.661 81.9446 36.0169 82.4047 36.0169 82.9723C36.0169 83.5398 47.661 83.9999 62.0248 83.9999Z" fill="black"/>
<path d="M74.8153 78.3083C74.8153 78.3083 77.2501 81.1542 80.9655 81.4388C80.9655 81.4388 82.3568 82.9249 78.341 82.5929C74.341 82.2451 74.2461 82.5139 73.8034 81.5653L73.7086 82.2451L71.4635 82.1186C71.4635 82.1186 71.2422 80.0949 71.5742 79.004L74.8153 78.3083Z" fill="#141D2E"/>
<path d="M50.1987 11.7154H50.3252L49.2026 13.1857C49.2026 13.1857 47.1947 13.5019 43.1473 15.5889C43.1473 15.5889 39.1789 26.7984 38.5781 29.9921C38.5781 29.9921 39.5268 32.2846 41.503 31.5257C43.4793 30.7668 48.0011 29.0276 48.0011 29.0276C48.0011 29.0276 50.1354 32.3794 50.6256 33.6126C51.1157 34.8458 51.8271 38.4348 52.0959 39.1304C52.0959 39.1304 60.6018 39.415 65.756 37.8814L71.4951 32.0158C71.4951 32.0158 75.1157 31.7312 72.8864 25.249L63.7007 12.9328L56.8074 12.3478L55.6849 11.5731C55.6849 11.5731 55.6374 13.9921 55.3845 14.7035C55.3845 14.7035 55.0366 15.083 54.341 15.1146C53.9141 15.1304 53.3291 15.0197 52.6177 14.5929C52.6177 14.6087 49.6928 12.8537 50.1987 11.7154Z" fill="url(#paint4_linear_18_140)"/>
<path d="M51.9214 38.6244C51.9214 38.6244 46.9727 55.3359 45.6447 60.2529C45.6447 60.2529 38.372 73.8339 36.7909 78.8458C36.7909 78.8458 38.3878 80.7588 39.6526 80.9011L51.0676 62.4189L59.7791 47.3201C59.7791 47.3201 64.4747 50.7667 67.0834 52.7588C69.6921 54.7509 73.0755 58.3082 73.0755 58.3082L71.4471 78.9723L75.4154 78.9565L79.7 56.7746L66.4352 37.5335C66.4194 37.5335 63.2257 38.8774 51.9214 38.6244Z" fill="url(#paint5_linear_18_140)"/>
<path d="M55.2737 2.08703C55.2737 2.08703 57.2974 4.74316 57.3448 6.05541C57.3922 7.36766 58.3883 8.91707 57.5978 9.47043C56.8073 10.0238 56.1748 10.5139 55.5266 10.3242L55.6689 14.593C55.6689 14.593 54.1827 17.1068 50.0879 12.4269L51.2104 8.41114C51.2104 8.41114 49.1393 8.07912 49.7875 5.62853C50.4199 3.20956 54.1195 0.173986 55.2737 2.08703Z" fill="url(#paint6_linear_18_140)"/>
<path opacity="0.3" d="M53.9455 9.62837C53.9455 9.62837 53.0602 14.8616 55.0523 15.1303C55.0523 15.1303 55.7637 14.9722 55.7163 14.2766C55.6689 13.5809 55.5266 10.324 55.5266 10.324L53.9455 9.62837Z" fill="url(#paint7_linear_18_140)"/>
<path d="M51.1942 8.42688C51.1942 8.42688 49.4709 8.80633 48.6645 7.09882C47.8582 5.3755 48.6487 3.66799 49.1705 3.32016C49.1705 3.32016 49.6606 0.553363 52.1112 0.0948649C54.5618 -0.363633 55.2891 1.13834 55.9057 0.205537C55.9057 0.205537 56.712 1.09091 56.0163 3.14625C56.0163 3.14625 55.463 2.10277 54.8622 2.03953C54.2772 1.97629 53.0914 1.84981 51.4313 3.98419C51.4313 3.98419 51.1784 4.23716 51.0203 4.23716C51.0203 4.23716 51.8424 5.32807 51.7317 6.4506C51.7317 6.4506 50.7989 5.40712 50.0242 6.07115C49.376 6.6087 50.2614 8.20554 51.1942 8.42688Z" fill="url(#paint8_linear_18_140)"/>
<path d="M53.708 17.2333L54.3404 15.1147C54.3404 15.1147 50.6567 14.2767 50.3404 11.6048L49.0914 13.0752L53.708 17.2333Z" fill="url(#paint9_linear_18_140)"/>
<path d="M56.586 16.6324L54.8785 15.0039C54.8785 15.0039 55.8271 14.7826 55.5741 11.3202L56.6334 12.2371C56.6176 12.253 57.1868 15.3043 56.586 16.6324Z" fill="url(#paint10_linear_18_140)"/>
<path d="M42.1039 37.3122L43.4794 39.3359L46.1988 37.9762C46.1988 37.9762 45.0288 36.2055 49.9616 31.5572C54.8944 26.909 55.4794 20.4584 55.7798 16.7588L54.5466 16.664C54.5466 16.664 53.677 23.7311 51.6691 26.4031C47.0525 32.5533 41.677 34.0553 42.1039 37.3122Z" fill="url(#paint11_linear_18_140)"/>
<path d="M48.0011 29.0434L56.9971 25.1541C56.9971 25.1541 56.507 23.3517 56.9497 22.4189C56.9497 22.4189 45.4556 24.0474 43.8113 24.7588C43.8113 24.7588 39.8588 25.5177 39.4161 26.9406L38.5781 29.992C38.5781 29.992 39.4477 31.747 40.5228 31.6837C41.5663 31.6363 48.0011 29.0434 48.0011 29.0434Z" fill="url(#paint12_linear_18_140)"/>
<path d="M55.8585 22.6087C55.8585 22.6087 55.2577 24.6166 56.1905 25.4704L57.0601 25.2016C57.0601 25.2016 56.4909 23.336 57.0917 22.3716L55.8585 22.6087Z" fill="#F6F6F6"/>
<path d="M69.3447 28.5375C69.3447 28.5375 70.5937 27.494 72.3961 30.166C72.3961 30.166 72.8071 31.8735 73.4553 30.6244C73.4553 30.6244 72.6648 27.494 70.6885 27.8102L69.3447 28.5375Z" fill="#F6F6F6"/>
<path d="M53.9929 16.4901L55.068 17.4229L55.7953 16.7589L56.0324 16.1581L54.8783 15.0039L54.3407 15.1304L53.9929 16.4901Z" fill="url(#paint13_linear_18_140)"/>
<path d="M68.9176 27.415C68.9176 27.415 72.4591 36.8063 92.5856 26.1976L94.4354 32.1897L94.0717 33.9447C94.0875 33.9447 63.4156 42.2134 68.9176 27.415Z" fill="#4E3CC1"/>
<path d="M88.6329 8.23724L89.5183 15.7155C89.5183 15.7155 79.7476 13.9131 72.2851 19.5258C64.5381 25.344 68.8068 39.3835 92.127 27.2412L94.0875 33.9606C94.0875 33.9606 61.5657 50.3874 59.0045 28.1266C56.4116 5.83408 88.6329 8.23724 88.6329 8.23724Z" fill="url(#paint14_linear_18_140)"/>
<path d="M56.9653 22.6086C56.9653 22.6086 57.4712 22.3082 57.8823 21.7391C58.2934 21.1699 58.2934 21.1699 58.2934 21.1699L60.3013 21.0592L61.9139 22.83L61.7874 24.8695C61.7874 24.8695 61.3764 25.1225 61.2499 24.7272L61.0444 26.1501C61.0444 26.1501 60.4752 26.324 60.4594 25.8339C60.4594 25.328 60.2697 24.5533 60.2697 24.5533L59.2104 23.747C59.2104 23.747 58.1669 25.6126 57.1867 25.2015C57.1708 25.1699 56.5859 23.9999 56.9653 22.6086Z" fill="url(#paint15_linear_18_140)"/>
<path fill-rule="evenodd" clip-rule="evenodd" d="M60.3488 21.9707L61.4343 23.0222L61.4831 25.1433L59.5675 23.1454L59.9285 22.7993L60.9536 23.8686L60.9392 23.2387L60.0009 22.3298L60.3488 21.9707Z" fill="#F4E2D5"/>
<path d="M69.6612 28.5533L67.8272 29.1067L67.4952 31.7312C67.4952 31.7312 68.2066 31.9367 68.3806 30.3873L69.6612 28.5533Z" fill="url(#paint16_linear_18_140)"/>
<path d="M69.6136 28.5059L68.2222 29.4703L68.5226 30.9565L68.8388 32.3794C68.8388 32.3794 69.3764 32.4426 69.2815 31.3833L69.2499 30.0553L70.0088 32.0632C70.0088 32.0632 70.8151 32.1739 70.2302 30.245L71.1788 30.0553C71.1788 30.0553 72.1432 30.3557 72.3013 30.1027C72.2855 30.1027 70.7045 27.7786 69.6136 28.5059Z" fill="url(#paint17_linear_18_140)"/>
<path d="M88.6807 8.17384L89.5661 15.6995C89.5661 15.6995 85.9456 15.1778 81.8981 15.7311L80.4436 8.33194C80.4436 8.33194 84.3645 7.88925 88.6807 8.17384Z" fill="url(#paint18_linear_18_140)"/>
<path d="M92.1268 27.2253C92.1268 27.2253 88.1268 29.1384 87.1466 29.5336L89.36 36.0633L94.1189 33.9921L92.1268 27.2253Z" fill="url(#paint19_linear_18_140)"/>
<path d="M92.6169 26.1661L94.4984 32.1898L94.1031 33.9921L92.0794 27.3202L87.1466 29.5653L87.3996 28.585L92.6169 26.1661Z" fill="url(#paint20_linear_18_140)"/>
<path d="M39.9376 79.3835C39.9376 79.3835 40.6964 81.4072 41.6293 81.6759C42.5779 81.9447 44.8546 82.4665 44.3644 83.3676L40.0008 83.2886C40.0008 83.2886 38.3881 82.9091 38.0403 82.419C37.6925 81.9289 37.3921 81.3123 37.3921 81.3123L36.902 82.3084L35.4 81.3597C35.4 81.3597 36.3802 78.672 36.9968 78.5139L39.9376 79.3835Z" fill="#141D2E"/>
<path d="M97.7555 29.3123L101.313 29.8183L102.467 28.3953L106.609 28.2372L101.898 27.3044L101.091 28.6167L97.7555 29.3123Z" fill="#F99746"/>
<path d="M100.823 7.92102L97.2026 8.63248L96.412 10.1503L92.3804 11.6048L97.2342 10.8617L97.7085 9.53367L100.823 7.92102Z" fill="#F99746"/>
</g>
<defs>
<linearGradient id="paint0_linear_18_140" x1="43.1788" y1="16.4984" x2="33.2514" y2="15.3223" gradientUnits="userSpaceOnUse">
<stop stop-color="#473CC2"/>
<stop offset="1" stop-color="#D045AE"/>
</linearGradient>
<linearGradient id="paint1_linear_18_140" x1="106.747" y1="73.7403" x2="1.99113" y2="54.4241" gradientUnits="userSpaceOnUse">
<stop stop-color="#473CC2"/>
<stop offset="1" stop-color="#D045AE"/>
</linearGradient>
<linearGradient id="paint2_linear_18_140" x1="103.026" y1="38.9465" x2="90.2339" y2="37.9217" gradientUnits="userSpaceOnUse">
<stop stop-color="#473CC2"/>
<stop offset="1" stop-color="#D045AE"/>
</linearGradient>
<linearGradient id="paint3_linear_18_140" x1="59.6818" y1="68.8373" x2="46.1843" y2="67.042" gradientUnits="userSpaceOnUse">
<stop stop-color="#473CC2"/>
<stop offset="1" stop-color="#D045AE"/>
</linearGradient>
<linearGradient id="paint4_linear_18_140" x1="39.2085" y1="23.8476" x2="73.8046" y2="27.4157" gradientUnits="userSpaceOnUse">
<stop offset="0.00537634" stop-color="#FFF9F9"/>
<stop offset="0.2262" stop-color="#FAF5F5"/>
<stop offset="0.5205" stop-color="#ECEAEB"/>
<stop offset="0.8547" stop-color="#D5D8DA"/>
<stop offset="1" stop-color="#C9CFD2"/>
</linearGradient>
<linearGradient id="paint5_linear_18_140" x1="38.9654" y1="57.7677" x2="79.1599" y2="61.9132" gradientUnits="userSpaceOnUse">
<stop offset="0.00537634" stop-color="#2A4E96"/>
<stop offset="0.7554" stop-color="#28406C"/>
<stop offset="1" stop-color="#233862"/>
</linearGradient>
<linearGradient id="paint6_linear_18_140" x1="49.4864" y1="7.88702" x2="57.9103" y2="8.75583" gradientUnits="userSpaceOnUse">
<stop stop-color="#E89D7D"/>
<stop offset="0.3345" stop-color="#EEAF89"/>
<stop offset="0.7251" stop-color="#F4BF93"/>
<stop offset="1" stop-color="#F6C497"/>
</linearGradient>
<linearGradient id="paint7_linear_18_140" x1="53.6522" y1="12.2962" x2="55.9102" y2="12.5291" gradientUnits="userSpaceOnUse">
<stop stop-color="#B2543A"/>
<stop offset="0.9892" stop-color="#E89D7D"/>
</linearGradient>
<linearGradient id="paint8_linear_18_140" x1="56.2992" y1="0.00550079" x2="47.4844" y2="0.990606" gradientUnits="userSpaceOnUse">
<stop stop-color="#D045AE"/>
<stop offset="1" stop-color="#473CC2"/>
</linearGradient>
<linearGradient id="paint9_linear_18_140" x1="48.981" y1="14.1169" x2="54.381" y2="14.6738" gradientUnits="userSpaceOnUse">
<stop offset="0.00537634" stop-color="white"/>
<stop offset="0.1887" stop-color="#F4F5F6"/>
<stop offset="0.5282" stop-color="#D7DADC"/>
<stop offset="0.9835" stop-color="#A7B0B5"/>
<stop offset="1" stop-color="#A6AFB4"/>
</linearGradient>
<linearGradient id="paint10_linear_18_140" x1="54.9901" y1="13.8761" x2="56.9835" y2="14.0817" gradientUnits="userSpaceOnUse">
<stop offset="0.00537634" stop-color="white"/>
<stop offset="0.1887" stop-color="#F4F5F6"/>
<stop offset="0.5282" stop-color="#D7DADC"/>
<stop offset="0.9835" stop-color="#A7B0B5"/>
<stop offset="1" stop-color="#A6AFB4"/>
</linearGradient>
<linearGradient id="paint11_linear_18_140" x1="55.7798" y1="16.664" x2="40.5355" y2="17.755" gradientUnits="userSpaceOnUse">
<stop stop-color="#D045AE"/>
<stop offset="1" stop-color="#473CC2"/>
</linearGradient>
<linearGradient id="paint12_linear_18_140" x1="60.3611" y1="23.1016" x2="33.427" y2="30.6969" gradientUnits="userSpaceOnUse">
<stop stop-color="#C9CFD2"/>
<stop offset="0.1311" stop-color="#D6D9DB"/>
<stop offset="0.3984" stop-color="#ECEAEB"/>
<stop offset="0.6362" stop-color="#FAF5F5"/>
<stop offset="0.8186" stop-color="#FFF9F9"/>
</linearGradient>
<linearGradient id="paint13_linear_18_140" x1="54.0248" y1="16.1199" x2="56.0131" y2="16.325" gradientUnits="userSpaceOnUse">
<stop offset="0.00537634" stop-color="#AB3431"/>
<stop offset="0.3567" stop-color="#A12D2D"/>
<stop offset="1" stop-color="#881D23"/>
</linearGradient>
<linearGradient id="paint14_linear_18_140" x1="94.0875" y1="8.16164" x2="55.3569" y2="13.2704" gradientUnits="userSpaceOnUse">
<stop stop-color="#D045AE"/>
<stop offset="1" stop-color="#473CC2"/>
</linearGradient>
<linearGradient id="paint15_linear_18_140" x1="56.8521" y1="23.2221" x2="61.8915" y2="23.7418" gradientUnits="userSpaceOnUse">
<stop stop-color="#E89D7D"/>
<stop offset="0.3345" stop-color="#EEAF89"/>
<stop offset="0.7251" stop-color="#F4BF93"/>
<stop offset="1" stop-color="#F6C497"/>
</linearGradient>
<linearGradient id="paint16_linear_18_140" x1="67.6718" y1="30.0496" x2="69.4928" y2="30.2374" gradientUnits="userSpaceOnUse">
<stop stop-color="#E89D7D"/>
<stop offset="0.3345" stop-color="#EEAF89"/>
<stop offset="0.7251" stop-color="#F4BF93"/>
<stop offset="1" stop-color="#F6C497"/>
</linearGradient>
<linearGradient id="paint17_linear_18_140" x1="68.145" y1="30.2204" x2="72.2297" y2="30.6417" gradientUnits="userSpaceOnUse">
<stop stop-color="#E89D7D"/>
<stop offset="0.3345" stop-color="#EEAF89"/>
<stop offset="0.7251" stop-color="#F4BF93"/>
<stop offset="1" stop-color="#F6C497"/>
</linearGradient>
<linearGradient id="paint18_linear_18_140" x1="80.8311" y1="12.2303" x2="89.6713" y2="11.7336" gradientUnits="userSpaceOnUse">
<stop stop-color="#C9CFD2"/>
<stop offset="0.6566" stop-color="#EFECED"/>
<stop offset="1" stop-color="#FFF9F9"/>
</linearGradient>
<linearGradient id="paint19_linear_18_140" x1="87.9713" y1="32.8964" x2="93.2951" y2="30.532" gradientUnits="userSpaceOnUse">
<stop stop-color="#C9CFD2"/>
<stop offset="1" stop-color="#FFF9F9"/>
</linearGradient>
<linearGradient id="paint20_linear_18_140" x1="87.1651" y1="29.4401" x2="94.7023" y2="30.2174" gradientUnits="userSpaceOnUse">
<stop stop-color="#A6AFB4"/>
<stop offset="1" stop-color="white"/>
</linearGradient>
<clipPath id="clip0_18_140">
<rect width="71.2095" height="84" fill="white" transform="translate(35.4)"/>
</clipPath>
</defs>
</svg>
