<svg width="120" height="84" viewBox="0 0 120 84" fill="none" xmlns="http://www.w3.org/2000/svg">
<g clip-path="url(#clip0_18_108)">
<path d="M62.1423 83.5801C85.9841 83.5801 102.496 54.2974 102.573 30.3903C102.649 6.48309 82.1455 1.90735e-05 58.3037 1.90735e-05C34.462 1.90735e-05 10.6297 13.6586 19.1117 40.2923C27.5937 66.9261 38.3005 83.5801 62.1423 83.5801Z" fill="url(#paint0_linear_18_108)" fill-opacity="0.12"/>
<path d="M76.0153 44.5338C59.8341 39.5966 50.0481 44.5338 50.0481 44.5338C45.1402 43.0676 43.177 46.7481 43.177 46.7481L26.2819 73.858C22.8612 82.9845 30.4462 83.7026 30.4462 83.7026H46.4489H47.5792H80.4176V74.5762H80.3581L80.4176 66.0183V62.9961V45.6111C78.276 43.8157 76.0153 44.5338 76.0153 44.5338ZM46.3894 75.0849H38.8045L46.3894 63.026V73.858V75.0849Z" fill="#60AFE8"/>
<path d="M80.4474 63.026V77.6581H76.6996L80.4474 63.026Z" fill="#2F82BD"/>
<path d="M89.4897 75.5637L87.2886 75.8031H70.8992V83.7027H95.7064C102.369 80.9797 99.3055 76.0724 99.3055 76.0724L82.4104 48.2144C81.8155 47.0175 81.1314 46.1797 80.4473 45.6111V62.9962L89.4897 75.5637Z" fill="#60AFE8"/>
<path d="M73.6655 75.8329C73.6655 75.8329 71.0777 71.6437 68.3114 74.606C65.5451 77.5684 65.6343 76.94 65.6343 76.94V80.3213H73.6655V75.8329Z" fill="#FFC6C2"/>
<path d="M80.4476 66.0183L80.3881 74.5762H80.4476V66.0183Z" fill="#2A0299"/>
<path d="M62.7195 46.5087C61.1133 46.5087 59.7748 45.1921 59.7748 43.5464V37.8312H65.6345V43.5464C65.6345 45.1921 64.3257 46.5087 62.7195 46.5087Z" fill="#FFC6C2"/>
<path d="M59.7748 39.0879C59.7748 39.0879 62.9872 42.6487 65.6345 39.0879H59.7748Z" fill="#E4918B"/>
<path d="M62.7194 39.5366C57.2761 39.5366 52.8144 35.0483 52.8144 29.5724V17.723C52.8144 14.2819 55.6104 11.4991 59.0013 11.4991H66.4078C69.8285 11.4991 72.5947 14.3119 72.5947 17.723V29.6023C72.5947 35.0782 68.1628 39.5366 62.7194 39.5366Z" fill="#FFC6C2"/>
<path d="M76.1049 24.5754C76.1049 26.67 75.0043 28.3756 73.6658 28.3756C72.3273 28.3756 71.2267 26.67 71.2267 24.5754C71.2267 22.4808 72.3273 20.7752 73.6658 20.7752C75.0341 20.7453 76.1049 22.4509 76.1049 24.5754Z" fill="#FFC6C2"/>
<path d="M52.8144 20.5358C52.8144 20.5358 54.0339 22.2713 73.6953 20.6854C73.6953 20.6854 72.7435 24.9644 72.6245 28.585H62.3328C62.3328 28.585 60.6671 25.9817 58.9716 28.585H52.8144V20.5358Z" fill="#523CC0"/>
<path d="M58.1681 24.5754C58.1086 24.4258 57.9896 24.3061 57.8707 24.2463C57.6327 24.1266 57.3352 24.1266 57.0675 24.1266C55.8183 24.1266 54.5987 23.9171 53.4089 23.5281C53.6469 23.6179 54.1823 24.6054 54.45 24.8447C54.9259 25.2637 55.4613 25.533 56.0562 25.7424C56.7701 25.9519 58.8225 25.922 58.1681 24.5754Z" fill="white"/>
<path d="M62.8681 24.5454C62.9573 24.3659 63.0763 24.2163 63.2548 24.1265C63.5522 23.947 63.9092 23.9769 64.2661 23.9769C65.8426 23.9769 67.4191 23.7076 68.9063 23.2288C68.6089 23.3186 67.9247 24.6053 67.5975 24.9045C67.0026 25.4132 66.3185 25.8022 65.5749 26.0416C64.6528 26.3109 62.0353 26.251 62.8681 24.5454Z" fill="white"/>
<path fill-rule="evenodd" clip-rule="evenodd" d="M59.4649 27.4886L60.4408 27.7067L59.7426 30.8311L62.6299 30.3074L62.8084 31.2913L58.4379 32.0841L59.4649 27.4886Z" fill="#E4918B"/>
<path d="M59.0903 34.0608L64.8905 32.1159C64.8905 32.0859 63.8792 37.8311 59.0903 34.0608Z" fill="white"/>
<path d="M71.0478 9.64396C70.0067 8.68644 68.5492 8.26752 67.1512 8.11791C60.2801 7.39977 53.3198 12.2772 46.7759 10.0928C47.5493 12.3968 49.5422 16.1073 51.5946 17.4238C53.1116 18.3814 54.9558 18.5011 56.7405 18.531C59.8637 18.5609 61.9458 17.0947 65.0096 17.7231C66.4968 18.0223 67.9246 18.531 69.4415 18.531C74.29 18.4711 73.7843 12.1874 71.0478 9.64396Z" fill="black"/>
<path d="M72.8027 13.2646C74.5279 13.2047 76.0746 14.8206 76.1341 16.5561C76.1341 16.9151 76.1043 17.3041 75.9259 17.6333C75.7177 18.0522 75.3607 18.3814 75.0335 18.7105C73.6058 20.2066 72.8324 22.3611 73.0406 24.4257C73.0704 24.7848 73.1299 25.2336 72.8622 25.473C72.5647 25.7722 71.9996 25.6526 71.7318 25.2935C71.4641 24.9643 71.4047 24.5155 71.3452 24.0667C70.9585 21.4634 68.0137 13.5638 72.8027 13.2646Z" fill="black"/>
<path d="M21.612 50.9672H63.6415C64.8313 50.9672 65.8426 51.805 66.0508 52.972L71.4049 80.7402C71.7024 82.2662 70.5423 83.7025 68.9956 83.7025H26.5794C25.3896 83.7025 24.3782 82.8348 24.17 81.6678L19.1729 53.8996C18.9052 52.3735 20.0652 50.9672 21.612 50.9672Z" fill="#F5F5FD"/>
<path d="M85.98 83.7025H28.4237C27.5016 83.7025 26.7282 82.9245 26.7282 81.9969C26.7282 81.0693 27.5016 80.2913 28.4237 80.2913H85.98C86.9021 80.2913 87.6755 81.0693 87.6755 81.9969C87.6755 82.9245 86.9021 83.7025 85.98 83.7025Z" fill="#F5F5FD"/>
<path d="M42.5823 70.6562C44.685 70.6562 46.3896 68.9414 46.3896 66.8261C46.3896 64.7108 44.685 62.996 42.5823 62.996C40.4795 62.996 38.7749 64.7108 38.7749 66.8261C38.7749 68.9414 40.4795 70.6562 42.5823 70.6562Z" fill="#D6D0F0"/>
<path d="M19.2027 53.5405C19.2027 53.6302 19.2324 53.7499 19.2324 53.8397L24.1998 81.6079C24.408 82.7749 25.4194 83.6426 26.6092 83.6426H28.4533H69.0254H72.2378C72.2676 83.6725 30.9222 82.2363 19.2027 53.5405Z" fill="#D6D0F0"/>
</g>
<defs>
<linearGradient id="paint0_linear_18_108" x1="17.188" y1="83.5801" x2="111.196" y2="72.5291" gradientUnits="userSpaceOnUse">
<stop stop-color="#473CC2"/>
<stop offset="1" stop-color="#D045AE"/>
</linearGradient>
<clipPath id="clip0_18_108">
<rect width="85.813" height="84" fill="white" transform="translate(17.1)"/>
</clipPath>
</defs>
</svg>
